<svg width="82" height="47" fill="none" xmlns="http://www.w3.org/2000/svg"><path d="M7.188 42.794H8.2v2.933a3.569 3.569 0 01-1.291.698 4.562 4.562 0 01-1.535.244 4.475 4.475 0 01-2.06-.489 3.829 3.829 0 01-1.43-1.36 3.727 3.727 0 01-.523-1.956c0-.733.174-1.396.523-1.954a3.576 3.576 0 011.43-1.362 4.373 4.373 0 012.06-.488c.593 0 1.151.104 1.64.279.488.21.907.489 1.256.873l-.663.663c-.593-.594-1.326-.873-2.164-.873a3.23 3.23 0 00-1.535.384 2.658 2.658 0 00-1.047 1.012 3.062 3.062 0 00-.384 1.466c0 .559.14 1.047.384 1.466.245.454.628.768 1.047 1.048a3.23 3.23 0 001.535.383c.663 0 1.257-.174 1.745-.488v-2.479zm16.854 3.77l-1.605-2.303c-.21 0-.35.034-.454.034h-1.85v2.27h-1.081V39.06h2.931c.977 0 1.745.244 2.303.698.558.453.837 1.117.837 1.92 0 .593-.14 1.082-.418 1.466-.28.418-.698.698-1.222.872l1.78 2.514h-1.221v.034zm-.559-3.63c.35-.28.524-.698.524-1.256 0-.559-.175-.943-.524-1.257-.349-.28-.872-.419-1.535-.419h-1.814v3.386h1.814c.663 0 1.186-.14 1.535-.454zm30.637 2.862c-.558-.558-.837-1.396-.837-2.443v-4.259h1.081v4.224c0 1.605.698 2.408 2.094 2.408.698 0 1.221-.21 1.57-.593.349-.384.558-1.012.558-1.815v-4.224h1.047v4.259c0 1.082-.279 1.885-.837 2.478-.559.559-1.326.838-2.338.838s-1.815-.28-2.338-.873zm21.634-6.004c.558.454.837 1.117.837 1.92 0 .803-.279 1.466-.837 1.92-.558.454-1.326.698-2.303.698h-1.85v2.27H70.52v-7.505h2.931c1.012 0 1.745.21 2.303.698zm-.768 3.142c.35-.28.524-.698.524-1.257 0-.558-.175-.942-.524-1.256-.349-.28-.872-.42-1.535-.42h-1.814v3.352h1.814c.663.035 1.187-.105 1.535-.42zm-62.529-24.12l-2.931 3.351h15.388v6.388H0v-4.538l1.64-1.85 6.874-7.888 6.84-7.854H0V0h24.914v4.538l-1.64 1.885-6.874 7.854-3.943 4.537zM82 0v28.553h-6.385V10.926l-7.886 7.888-4.537-4.537-3.315-3.351v17.627h-6.42V0h4.536l1.884 1.885 7.851 7.889 7.887-7.89L77.499 0H82zM42.36 0h-6.385v28.553h6.386V0z" fill="#4A4D56"/><path d="M36.987 46.18a3.406 3.406 0 01-1.36-1.361c-.35-.593-.49-1.257-.49-1.99 0-.733.175-1.396.49-1.99a3.638 3.638 0 011.36-1.36 4.158 4.158 0 011.954-.49c.733 0 1.396.175 1.954.49a3.203 3.203 0 011.361 1.36c.314.594.489 1.257.489 1.99 0 .733-.175 1.397-.489 1.99a3.406 3.406 0 01-1.36 1.361 4.158 4.158 0 01-1.955.49c-.733 0-1.396-.14-1.954-.49z" fill="#12B259"/></svg>