<svg width="64" height="44" viewBox="0 0 64 44" fill="none" xmlns="http://www.w3.org/2000/svg">
<path d="M62.976 3.59097L60.8796 1.49458C60.2209 0.835323 59.3426 0.472656 58.4049 0.472656C57.4673 0.472656 56.5885 0.835323 55.9298 1.49458L26.4726 30.9512L8.06816 12.5463C7.40943 11.8881 6.5306 11.5249 5.59298 11.5249C4.65587 11.5249 3.77756 11.8881 3.11831 12.5463L1.0214 14.6422C0.362146 15.3024 0 16.1818 0 17.1184C0 18.0555 0.362146 18.9343 1.0214 19.5936L21.8011 40.3722C21.8287 40.4113 21.8578 40.4477 21.8916 40.481L23.9886 42.543C24.6473 43.1997 25.5261 43.528 26.471 43.528H26.482C27.4201 43.528 28.2989 43.1997 28.9566 42.543L31.054 40.4628C31.0879 40.4295 31.1165 40.4019 31.1337 40.3738L62.9755 8.53509C64.3413 7.17236 64.3413 4.95526 62.976 3.59097Z" fill="white"/>
</svg>
