<svg width="20" height="20" viewBox="0 0 20 20" fill="none" xmlns="http://www.w3.org/2000/svg">
<path d="M19.9991 15.7953C19.9991 16.0513 19.9515 16.3844 19.8572 16.7966C19.7629 17.2088 19.6633 17.5329 19.5591 17.77C19.3606 18.2432 18.7823 18.7452 17.826 19.2759C16.9361 19.7591 16.0551 20.0006 15.1841 20.0006C14.9282 20.0006 14.6794 19.9845 14.4388 19.9512C14.1972 19.918 13.9251 19.8587 13.6216 19.7734C13.319 19.6881 13.0936 19.6199 12.9472 19.5678C12.8008 19.5157 12.5377 19.4187 12.1588 19.2768C11.7798 19.135 11.5481 19.0496 11.4628 19.0209C10.5352 18.6896 9.70636 18.2962 8.97719 17.8419C7.76491 17.0938 6.51311 16.0737 5.22001 14.7806C3.9278 13.4884 2.90679 12.2357 2.15876 11.0234C1.70438 10.2943 1.31106 9.46541 0.979706 8.53779C0.95097 8.45248 0.865661 8.2208 0.723779 7.84185C0.581896 7.4629 0.484913 7.20068 0.43283 7.05341C0.380746 6.90704 0.3125 6.68165 0.227191 6.37902C0.141882 6.0764 0.0826152 5.80341 0.0493896 5.56186C0.0161641 5.3203 0 5.07155 0 4.81652C0 3.94547 0.241558 3.06454 0.724676 2.17463C1.25539 1.21828 1.75647 0.640875 2.2306 0.441521C2.46767 0.337355 2.79185 0.237671 3.20402 0.143383C3.6162 0.0490932 3.94935 0.0015049 4.20528 0.0015049C4.33818 0.0015049 4.43696 0.0158691 4.50341 0.0437069C4.67403 0.100281 4.92457 0.460377 5.25593 1.12309C5.36009 1.30269 5.50198 1.55862 5.68247 1.88998C5.86207 2.22134 6.0282 2.52215 6.17996 2.79155C6.33172 3.06185 6.47809 3.31509 6.61997 3.55126C6.64871 3.58897 6.73132 3.7075 6.86871 3.90596C7.00611 4.10441 7.10758 4.27324 7.17403 4.41063C7.24048 4.54802 7.27371 4.68272 7.27371 4.81562C7.27371 5.0051 7.13901 5.24217 6.86871 5.52593C6.59842 5.8097 6.30568 6.07011 5.98779 6.30718C5.6708 6.54425 5.37715 6.79479 5.10686 7.05969C4.83657 7.3246 4.70187 7.54282 4.70187 7.71343C4.70187 7.79874 4.72521 7.9056 4.77281 8.03311C4.8204 8.16063 4.86081 8.25762 4.89314 8.32407C4.92547 8.39052 4.99282 8.50366 5.09159 8.6653C5.19037 8.82694 5.24515 8.91584 5.25503 8.93559C5.97432 10.2332 6.79867 11.3458 7.72629 12.2734C8.65391 13.201 9.76742 14.0254 11.0641 14.7447C11.083 14.7546 11.1728 14.8084 11.3344 14.9081C11.4952 15.0078 11.6092 15.0742 11.6756 15.1066C11.7421 15.1398 11.8391 15.1802 11.9666 15.2269C12.0941 15.2745 12.201 15.2978 12.2863 15.2978C12.4569 15.2978 12.6742 15.1631 12.94 14.8928C13.2058 14.6226 13.4564 14.3298 13.6925 14.0119C13.9296 13.6949 14.19 13.4013 14.4738 13.131C14.7575 12.8607 14.9946 12.726 15.1841 12.726C15.317 12.726 15.4517 12.7592 15.5891 12.8257C15.7265 12.8921 15.8944 12.9936 16.0938 13.131C16.2922 13.2684 16.4107 13.351 16.4485 13.3797C16.6855 13.5216 16.9388 13.6689 17.2082 13.8198C17.4784 13.9715 17.7784 14.1368 18.1097 14.3172C18.4411 14.4977 18.697 14.6396 18.8766 14.7438C19.5393 15.0751 19.8994 15.3266 19.956 15.4963C19.9856 15.5637 19.9991 15.6633 19.9991 15.7953Z" fill="white"/>
</svg>
