<svg width="24" height="23" viewBox="0 0 24 23" fill="none" xmlns="http://www.w3.org/2000/svg">
    <path d="M5.36994 22.1538C5.10692 22.1538 4.84579 22.0747 4.62316 21.9195C4.20798 21.6295 4.01401 21.1314 4.1272 20.651L5.67099 14.0998L0.434671 9.67676C0.0495437 9.35329 -0.0974622 8.84073 0.0608157 8.37159C0.218624 7.90336 0.648839 7.57221 1.15796 7.52697L8.08602 6.92121L10.8251 0.746454C11.0271 0.293153 11.4874 0 11.9984 0C12.5093 0 12.9692 0.293153 13.1716 0.745549L15.9107 6.92121L22.8378 7.52697C23.3479 7.5713 23.7781 7.90382 23.9359 8.37159C24.0937 8.83982 23.9476 9.35329 23.563 9.67676L18.3266 14.0989L19.8704 20.6501C19.9836 21.1319 19.7897 21.63 19.3745 21.9186C18.9602 22.2077 18.4084 22.2298 17.9725 21.9774L11.9984 18.5387L6.02418 21.9797C5.82223 22.095 5.59725 22.1538 5.36994 22.1538ZM11.9984 17.0576C12.2252 17.0576 12.4502 17.1164 12.6526 17.2318L18.291 20.48L16.8336 14.2966C16.7298 13.8564 16.8848 13.3973 17.2375 13.0996L22.1817 8.92306L15.6406 8.35078C15.1695 8.30916 14.7647 8.02415 14.5806 7.60614L11.9984 1.77927L9.4133 7.60704C9.23107 8.02234 8.82622 8.30735 8.35655 8.34897L1.81408 8.9208L6.75827 13.0973C7.1124 13.3959 7.26739 13.8546 7.16219 14.2957L5.70622 20.4786L11.3446 17.2313C11.5461 17.116 11.771 17.0576 11.9984 17.0576ZM8.03342 7.04064C8.03342 7.04064 8.03342 7.04155 8.03248 7.04245L8.03342 7.04064ZM15.9614 7.03748L15.9623 7.03929C15.9623 7.03838 15.9623 7.03838 15.9614 7.03748Z"
          fill="white"/>
</svg>
