<svg width="20" height="15" viewBox="0 0 20 15" fill="none" xmlns="http://www.w3.org/2000/svg">
<path d="M11.8656 14.7345C11.5971 14.645 11.3883 14.4884 11.3063 14.1976C11.2467 13.9664 11.2914 13.7651 11.4256 13.5712C11.4704 13.5041 11.53 13.4519 11.5897 13.3922C13.4987 11.4833 15.4151 9.56681 17.3241 7.65783C17.3614 7.62055 17.3912 7.58326 17.4583 7.51615C17.4061 7.47887 17.3539 7.4565 17.3166 7.41921C15.4002 5.50277 13.4763 3.58633 11.5599 1.6699C11.269 1.37907 11.2019 1.06588 11.366 0.760146C11.5673 0.364927 12.0818 0.245616 12.4323 0.514067C12.492 0.558808 12.5442 0.611007 12.5964 0.663206C14.6992 2.75861 16.7946 4.86147 18.8975 6.96434C19.2927 7.35955 19.2927 7.75477 18.8975 8.14999C16.8319 10.2156 14.7663 12.2737 12.7082 14.3393C12.5442 14.5033 12.3801 14.6674 12.149 14.7419C12.052 14.7345 11.9551 14.7345 11.8656 14.7345Z" fill="white"/>
<path d="M0.709961 7.53852C0.709961 7.889 0.993325 8.17236 1.3438 8.17236L17.4881 8.17236L17.4881 6.90468L1.3438 6.90468C0.993325 6.90468 0.709961 7.18804 0.709961 7.53852Z" fill="white"/>
</svg>
