<svg width="40" height="40" viewBox="0 0 40 40" fill="none" xmlns="http://www.w3.org/2000/svg">
<circle cx="20" cy="20" r="20" transform="rotate(-180 20 20)" fill="#12B259" fill-opacity="0.8"/>
<path d="M18.4462 13.5544C18.6699 13.629 18.8439 13.7595 18.9122 14.0018C18.9619 14.1945 18.9246 14.3623 18.8128 14.5238C18.7755 14.5798 18.7258 14.6233 18.6761 14.673C17.0853 16.2638 15.4882 17.8608 13.8974 19.4516C13.8663 19.4827 13.8415 19.5138 13.7856 19.5697C13.8291 19.6008 13.8726 19.6194 13.9036 19.6505C15.5007 21.2475 17.1039 22.8446 18.7009 24.4416C18.9433 24.6839 18.9992 24.9449 18.8625 25.1997C18.6947 25.5291 18.2659 25.6285 17.9739 25.4048C17.9242 25.3675 17.8807 25.324 17.8372 25.2805C16.0848 23.5343 14.3386 21.7819 12.5862 20.0296C12.2569 19.7002 12.2569 19.3709 12.5862 19.0415C14.3075 17.3202 16.0289 15.6051 17.744 13.8838C17.8807 13.7471 18.0174 13.6104 18.21 13.5482C18.2908 13.5544 18.3716 13.5544 18.4462 13.5544Z" fill="white"/>
<path d="M27.7422 19.551C27.7422 19.259 27.5061 19.0228 27.214 19.0228L13.7604 19.0228L13.7604 20.0792L27.214 20.0792C27.5061 20.0792 27.7422 19.8431 27.7422 19.551Z" fill="white"/>
</svg>
