<svg width="10" height="16" viewBox="0 0 10 16" fill="none" xmlns="http://www.w3.org/2000/svg">
<path d="M1.59353 14.9927C1.32222 14.9056 1.1112 14.753 1.0283 14.4697C0.968006 14.2446 1.01322 14.0484 1.14888 13.8596C1.1941 13.7942 1.25439 13.7434 1.31468 13.6853C3.24402 11.8257 5.18089 9.95892 7.11023 8.09939C7.14791 8.06307 7.17806 8.02675 7.24589 7.96138C7.19313 7.92506 7.14037 7.90327 7.10269 7.86695C5.16582 6.00015 3.22141 4.13336 1.28454 2.26656C0.990614 1.98327 0.922785 1.67819 1.08859 1.38038C1.29207 0.995397 1.81209 0.879176 2.1663 1.14067C2.2266 1.18426 2.27935 1.2351 2.33211 1.28595C4.45739 3.32708 6.57514 5.37547 8.70042 7.42386C9.09986 7.80884 9.09986 8.19382 8.70042 8.5788C6.61282 10.5909 4.52522 12.5957 2.44515 14.6078C2.27935 14.7676 2.11355 14.9274 1.87992 15C1.78194 14.9927 1.68397 14.9927 1.59353 14.9927Z" fill="#214C3D" stroke="#214C3D"/>
</svg>
