<svg width="24" height="19" viewBox="0 0 24 19" fill="none" xmlns="http://www.w3.org/2000/svg">
<path d="M14.4089 18.9904C14.0622 18.8748 13.7925 18.6725 13.6866 18.2969C13.6095 17.9983 13.6673 17.7382 13.8407 17.4878C13.8985 17.4011 13.9755 17.3337 14.0526 17.2566C16.5183 14.7909 18.9937 12.3155 21.4595 9.84969C21.5077 9.80153 21.5462 9.75337 21.6329 9.66668C21.5655 9.61852 21.498 9.58963 21.4499 9.54147C18.9745 7.06607 16.4894 4.59067 14.014 2.11527C13.6384 1.73963 13.5517 1.33509 13.7636 0.940178C14.0237 0.429687 14.6883 0.275576 15.141 0.622326C15.218 0.680117 15.2855 0.747539 15.3529 0.814962C18.0691 3.52153 20.7756 6.23773 23.4918 8.95392C24.0023 9.46441 24.0023 9.9749 23.4918 10.4854C20.8238 13.1534 18.1558 15.8118 15.4974 18.4799C15.2855 18.6918 15.0735 18.9037 14.775 19C14.6497 18.9904 14.5245 18.9904 14.4089 18.9904Z" fill="white"/>
<path d="M-3.5787e-08 9.69557C-1.59989e-08 10.1483 0.366012 10.5143 0.818712 10.5143L21.6718 10.5143L21.6718 8.87686L0.818712 8.87686C0.366012 8.87686 -5.55752e-08 9.24287 -3.5787e-08 9.69557Z" fill="white"/>
</svg>
