<svg width="10" height="16" viewBox="0 0 10 16" fill="none" xmlns="http://www.w3.org/2000/svg">
<path d="M8.40647 1.00726C8.67778 1.09443 8.8888 1.24697 8.9717 1.53026C9.03199 1.75543 8.98678 1.95156 8.85112 2.14042C8.8059 2.20579 8.74561 2.25664 8.68532 2.31475C6.75598 4.17428 4.81911 6.04108 2.88977 7.90061C2.85209 7.93693 2.82194 7.97325 2.75411 8.03862C2.80687 8.07494 2.85962 8.09673 2.89731 8.13305C4.83418 9.99985 6.77859 11.8666 8.71546 13.7334C9.00938 14.0167 9.07721 14.3218 8.91141 14.6196C8.70793 15.0046 8.18791 15.1208 7.8337 14.8593C7.7734 14.8157 7.72065 14.7649 7.66789 14.7141C5.54261 12.6729 3.42486 10.6245 1.29957 8.57614C0.900142 8.19116 0.900142 7.80618 1.29957 7.4212C3.38718 5.40913 5.47478 3.40432 7.55485 1.39225C7.72065 1.23244 7.88645 1.07264 8.12008 1C8.21806 1.00726 8.31603 1.00726 8.40647 1.00726Z" fill="#214C3D" stroke="#214C3D"/>
</svg>
