<svg width="40" height="40" viewBox="0 0 40 40" fill="none" xmlns="http://www.w3.org/2000/svg">
<circle cx="20" cy="20" r="20" fill="#12B259" fill-opacity="0.8"/>
<path d="M21.5538 26.4456C21.3301 26.371 21.1561 26.2405 21.0878 25.9982C21.0381 25.8055 21.0754 25.6377 21.1872 25.4762C21.2245 25.4202 21.2742 25.3767 21.3239 25.327C22.9147 23.7362 24.5118 22.1392 26.1026 20.5484C26.1337 20.5173 26.1585 20.4862 26.2144 20.4303C26.1709 20.3992 26.1274 20.3806 26.0964 20.3495C24.4993 18.7525 22.8961 17.1554 21.2991 15.5584C21.0567 15.3161 21.0008 15.0551 21.1375 14.8003C21.3053 14.4709 21.7341 14.3715 22.0261 14.5952C22.0758 14.6325 22.1193 14.676 22.1628 14.7195C23.9152 16.4657 25.6614 18.2181 27.4138 19.9704C27.7431 20.2998 27.7431 20.6291 27.4138 20.9585C25.6925 22.6798 23.9711 24.3949 22.256 26.1162C22.1193 26.2529 21.9826 26.3896 21.79 26.4518C21.7092 26.4456 21.6284 26.4456 21.5538 26.4456Z" fill="white"/>
<path d="M12.2578 20.449C12.2578 20.741 12.4939 20.9772 12.786 20.9772L26.2396 20.9772L26.2396 19.9208L12.786 19.9208C12.4939 19.9208 12.2578 20.1569 12.2578 20.449Z" fill="white"/>
</svg>
