<svg width="18" height="18" viewBox="0 0 18 18" fill="none" xmlns="http://www.w3.org/2000/svg">
<g clip-path="url(#clip0)">
<path d="M0.576923 3.27462H3.595C3.85092 4.24739 4.73777 4.96693 5.78969 4.96693C6.84162 4.96693 7.72846 4.24739 7.98438 3.27462H17.4231C17.7417 3.27462 18 3.01631 18 2.6977C18 2.37908 17.7417 2.12077 17.4231 2.12077H7.98431C7.72838 1.14801 6.84154 0.428467 5.78962 0.428467C4.73769 0.428467 3.85085 1.14801 3.59492 2.12077H0.576923C0.258308 2.12077 0 2.37908 0 2.6977C0 3.01631 0.258308 3.27462 0.576923 3.27462ZM5.78969 1.58231C6.40469 1.58231 6.90508 2.0827 6.90508 2.6977C6.90508 3.3127 6.40469 3.81308 5.78969 3.81308C5.17469 3.81308 4.67431 3.3127 4.67431 2.6977C4.67431 2.0827 5.17469 1.58231 5.78969 1.58231Z" fill="#214C3D"/>
<path d="M17.4231 8.42302H13.5777C13.3218 7.45025 12.4349 6.73071 11.383 6.73071C10.3311 6.73071 9.44423 7.45025 9.18831 8.42302H0.576923C0.258308 8.42302 0 8.68133 0 8.99994C0 9.31856 0.258308 9.57687 0.576923 9.57687H9.18838C9.44431 10.5496 10.3312 11.2692 11.3831 11.2692C12.435 11.2692 13.3218 10.5496 13.5778 9.57687H17.4232C17.7418 9.57687 18.0001 9.31856 18.0001 8.99994C18.0001 8.68133 17.7417 8.42302 17.4231 8.42302ZM11.3831 10.1153C10.7681 10.1153 10.2677 9.61494 10.2677 8.99994C10.2677 8.38494 10.7681 7.88456 11.3831 7.88456C11.9981 7.88456 12.4985 8.38494 12.4985 8.99994C12.4985 9.61494 11.9981 10.1153 11.3831 10.1153Z" fill="#214C3D"/>
<path d="M17.4231 14.7253H7.98431C7.72838 13.7526 6.84154 13.033 5.78962 13.033C4.73769 13.033 3.85085 13.7526 3.59492 14.7253H0.576923C0.258308 14.7253 0 14.9836 0 15.3022C0 15.6208 0.258308 15.8791 0.576923 15.8791H3.595C3.85092 16.8519 4.73777 17.5714 5.78969 17.5714C6.84162 17.5714 7.72846 16.8519 7.98438 15.8791H17.4231C17.7417 15.8791 18 15.6208 18 15.3022C18 14.9836 17.7417 14.7253 17.4231 14.7253ZM5.78969 16.4176C5.17469 16.4176 4.67431 15.9172 4.67431 15.3022C4.67431 14.6872 5.17469 14.1868 5.78969 14.1868C6.40469 14.1868 6.90508 14.6872 6.90508 15.3022C6.90508 15.9172 6.40469 16.4176 5.78969 16.4176Z" fill="#214C3D"/>
</g>
<defs>
<clipPath id="clip0">
<rect width="18" height="18" fill="white"/>
</clipPath>
</defs>
</svg>
