<svg width="30" height="30" viewBox="0 0 30 30" fill="none" xmlns="http://www.w3.org/2000/svg">
<path d="M15 30C23.2843 30 30 23.2843 30 15C30 6.71573 23.2843 0 15 0C6.71573 0 0 6.71573 0 15C0 23.2843 6.71573 30 15 30Z" fill="white"/>
<path d="M24.9836 19.9621C24.9836 20.3086 24.9836 20.6371 24.9836 20.9746C22.6196 20.9746 20.2586 20.9746 17.8856 20.9746C17.8856 20.6416 17.8856 20.3086 17.8856 19.9621C18.3521 19.9621 18.8141 19.9621 19.2956 19.9621C18.8201 18.6301 18.3506 17.3176 17.8721 15.9751C16.9376 17.6536 16.0151 19.3081 15.0821 20.9836C14.1131 19.3126 13.1546 17.6581 12.1796 15.9751C11.7011 17.3146 11.2316 18.6286 10.7561 19.9621C11.2406 19.9621 11.7011 19.9621 12.1706 19.9621C12.1706 20.3086 12.1706 20.6386 12.1706 20.9776C9.78412 20.9776 7.40362 20.9776 5.01562 20.9776C5.01562 20.6431 5.01562 20.3116 5.01562 19.9621C5.11762 19.9621 5.22113 19.9621 5.32313 19.9621C5.60513 19.9621 5.88863 19.9546 6.17063 19.9651C6.28763 19.9696 6.33413 19.9246 6.37463 19.8226C7.79363 16.2421 9.21562 12.6631 10.6376 9.08405C10.8731 8.49305 11.1086 7.90055 11.3426 7.30955C11.3531 7.28555 11.3651 7.26155 11.3861 7.21655C12.6206 9.57155 13.8461 11.9086 15.0791 14.2606C15.1151 14.1946 15.1451 14.1451 15.1706 14.0926C16.3106 11.8606 17.4491 9.62705 18.5906 7.39655C18.6146 7.34855 18.6536 7.29005 18.6986 7.27355C18.7916 7.23905 18.8366 7.29755 18.8726 7.38905C19.3316 8.58155 19.7966 9.77105 20.2586 10.9621C21.4076 13.9201 22.5581 16.8781 23.7041 19.8376C23.7416 19.9336 23.7896 19.9651 23.8916 19.9636C24.2516 19.9576 24.6116 19.9621 24.9836 19.9621Z" fill="#214C3D"/>
</svg>
