<svg width="30" height="30" viewBox="0 0 30 30" fill="none" xmlns="http://www.w3.org/2000/svg">
<path d="M15 30C23.2843 30 30 23.2843 30 15C30 6.71573 23.2843 0 15 0C6.71573 0 0 6.71573 0 15C0 23.2843 6.71573 30 15 30Z" fill="white"/>
<path d="M20.7284 11.322C20.6159 10.224 20.4374 9.36897 20.1539 9.03297C18.9869 7.65147 10.8089 7.54947 9.88044 9.03297C9.65394 9.39597 9.49344 10.248 9.38694 11.325C9.04194 11.3655 8.77344 11.6565 8.77344 12.012V13.3575C8.77344 13.656 8.96244 13.9095 9.22794 14.007C9.16494 16.1265 9.21594 18.3375 9.31044 19.437C9.31044 20.286 9.88044 20.145 9.88044 20.145H10.4144V21.0615C10.4144 21.4245 10.7894 21.7185 11.2499 21.7185C11.7119 21.7185 12.0869 21.4245 12.0869 21.0615V20.145H18.3044V21.0615C18.3044 21.4245 18.6794 21.7185 19.1414 21.7185C19.6034 21.7185 19.9769 21.4245 19.9769 21.0615V20.145H20.1524C20.1524 20.145 20.8229 20.2365 20.8664 19.8375C20.8664 18.741 20.9354 16.311 20.8784 14.0175C21.1604 13.929 21.3644 13.6695 21.3644 13.359V12.0135C21.3674 11.6475 21.0854 11.352 20.7284 11.322ZM11.8784 9.22947H18.1574V10.179H11.8784V9.22947ZM11.9684 19.062C11.4749 19.062 11.0759 18.663 11.0759 18.1695C11.0759 17.6775 11.4749 17.277 11.9684 17.277C12.4619 17.277 12.8609 17.676 12.8609 18.1695C12.8609 18.6615 12.4619 19.062 11.9684 19.062ZM18.1229 19.062C17.6309 19.062 17.2304 18.663 17.2304 18.1695C17.2304 17.6775 17.6309 17.277 18.1229 17.277C18.6164 17.277 19.0154 17.676 19.0154 18.1695C19.0169 18.6615 18.6164 19.062 18.1229 19.062ZM19.2584 15.1545H10.7774V10.707H19.2584V15.1545Z" fill="#214C3D"/>
</svg>
