<svg width="30" height="30" viewBox="0 0 30 30" fill="none" xmlns="http://www.w3.org/2000/svg">
<path d="M15 30C23.2843 30 30 23.2843 30 15C30 6.71573 23.2843 0 15 0C6.71573 0 0 6.71573 0 15C0 23.2843 6.71573 30 15 30Z" fill="white"/>
<path d="M21.3442 18.2444V14.7104L15.6862 15.8489C15.4627 15.8939 15.2317 15.9164 15.0022 15.9164C14.7727 15.9164 14.5432 15.8939 14.3182 15.8489L8.66016 14.7104V18.2444C8.66016 19.1594 11.4997 19.9004 15.0022 19.9004C18.5047 19.9004 21.3442 19.1609 21.3442 18.2444Z" fill="#214C3D"/>
<path d="M25.3474 12.1259L15.5539 10.1549C15.3724 10.1189 15.1879 10.0994 15.0019 10.0994C14.8159 10.0994 14.6329 10.1174 14.4499 10.1549L4.65493 12.1259C4.05643 12.2459 4.05643 13.1009 4.65493 13.2209L8.65843 14.0264L14.4484 15.1904C14.6299 15.2264 14.8144 15.2459 15.0004 15.2459C15.1864 15.2459 15.3694 15.2279 15.5524 15.1904L21.3424 14.0264L23.1439 13.6649V17.8544C22.9309 18.0404 22.7974 18.3149 22.7974 18.6194C22.7974 19.1804 23.2534 19.6364 23.8144 19.6364C24.3754 19.6364 24.8314 19.1804 24.8314 18.6194C24.8314 18.3134 24.6979 18.0404 24.4849 17.8544V13.3934L25.3459 13.2209C25.9444 13.1009 25.9444 12.2474 25.3474 12.1259Z" fill="#214C3D"/>
</svg>
