<svg width="30" height="30" viewBox="0 0 30 30" fill="none" xmlns="http://www.w3.org/2000/svg">
<path d="M15 30C23.2843 30 30 23.2843 30 15C30 6.71573 23.2843 0 15 0C6.71573 0 0 6.71573 0 15C0 23.2843 6.71573 30 15 30Z" fill="white"/>
<path d="M11.0038 17.4645H21.2998L23.1208 10.962H20.4403L19.4773 7.98897L15.4633 9.28947L16.0123 10.962H15.8233L14.8318 7.98897L10.8178 9.28947L11.3668 10.962H9.22182L8.77632 9.17997C8.55132 8.28897 7.77432 7.65747 6.88032 7.65747H5.65332V8.40297H6.88032C7.43682 8.40297 7.92132 8.77347 8.07132 9.33297L10.0423 17.0475C9.63582 17.34 9.36882 17.817 9.36882 18.363C9.36882 19.254 10.1143 19.9995 11.0053 19.9995H21.0403V19.254H11.0053C10.5208 19.254 10.1143 18.8445 10.1143 18.363C10.1128 17.8755 10.5223 17.4645 11.0038 17.4645ZM18.9958 8.91597L19.6663 10.923H16.7683L16.3588 9.77097L18.9958 8.91597ZM14.3503 8.91597L15.0208 10.923H12.1228L11.7133 9.77097L14.3503 8.91597Z" fill="#214C3D"/>
<path d="M17.7705 21.1082C16.9155 21.1082 16.209 21.8147 16.209 22.6697C16.209 23.5247 16.9155 24.2312 17.7705 24.2312C18.6615 24.2312 19.332 23.5247 19.332 22.6697C19.332 21.8147 18.6255 21.1082 17.7705 21.1082Z" fill="#214C3D"/>
<path d="M12.0449 21.1082C11.1899 21.1082 10.4834 21.8147 10.4834 22.6697C10.4834 23.5247 11.1899 24.2312 12.0449 24.2312C12.8999 24.2312 13.6064 23.5247 13.6064 22.6697C13.6064 21.8147 12.8999 21.1082 12.0449 21.1082Z" fill="#214C3D"/>
</svg>
