<svg width="30" height="30" viewBox="0 0 30 30" fill="none" xmlns="http://www.w3.org/2000/svg">
<path d="M15 30C23.2843 30 30 23.2843 30 15C30 6.71573 23.2843 0 15 0C6.71573 0 0 6.71573 0 15C0 23.2843 6.71573 30 15 30Z" fill="white"/>
<path d="M16.2978 9.37812C15.9228 8.94162 15.5853 8.55462 15.3213 8.22912C15.3093 8.20362 15.2838 8.19162 15.2718 8.17962C15.1338 8.06712 14.9343 8.09262 14.8218 8.22912C14.5593 8.55312 14.2218 8.94162 13.8453 9.37812C12.1938 11.2891 9.90332 13.9366 9.90332 16.1461C9.90332 17.5696 10.4793 18.8566 11.4168 19.7926C12.3558 20.7166 13.6443 21.3031 15.0708 21.3031C16.4973 21.3031 17.7858 20.7286 18.7248 19.7926C19.6638 18.8566 20.2383 17.5696 20.2383 16.1461C20.2383 13.9366 17.9493 11.2891 16.2978 9.37812ZM15.0963 19.6561C14.1453 19.6561 13.2813 19.2691 12.6813 18.6691C12.0678 18.0451 11.6808 17.1961 11.6808 16.2466C11.6808 16.0711 11.8188 15.9346 11.9943 15.9346C12.1698 15.9346 12.3078 16.0726 12.3078 16.2466C12.3078 17.0206 12.6213 17.7196 13.1208 18.2191C13.6218 18.7186 14.3223 19.0306 15.0978 19.0306C15.2733 19.0306 15.4113 19.1686 15.4113 19.3426C15.4098 19.5181 15.2718 19.6561 15.0963 19.6561Z" fill="#214C3D"/>
</svg>
