<svg width="30" height="30" viewBox="0 0 30 30" fill="none" xmlns="http://www.w3.org/2000/svg">
<path d="M15 30C23.2843 30 30 23.2843 30 15C30 6.71573 23.2843 0 15 0C6.71573 0 0 6.71573 0 15C0 23.2843 6.71573 30 15 30Z" fill="white"/>
<path d="M15.6417 5.77808C15.6432 5.79908 15.6462 5.82158 15.6462 5.84258C15.6462 6.24008 15.6462 6.63758 15.6462 7.03508C15.6462 7.05608 15.6462 7.07858 15.6462 7.10708C16.0902 7.10708 16.5312 7.10708 16.9752 7.10708C16.9752 7.55258 16.9752 7.99358 16.9752 8.44058C16.5342 8.44058 16.0932 8.44058 15.6462 8.44058C15.6462 8.46758 15.6462 8.48708 15.6462 8.50658C15.6462 9.22208 15.6462 9.93908 15.6477 10.6546C15.6477 10.6876 15.6627 10.7266 15.6837 10.7506C16.4217 11.6011 17.1612 12.4486 17.8992 13.2976C18.0237 13.4401 18.1467 13.5826 18.2712 13.7236C18.2997 13.7566 18.3102 13.7881 18.3102 13.8316C18.3087 14.3536 18.3102 14.8756 18.3087 15.3976C18.3087 15.4381 18.3177 15.4621 18.3537 15.4861C19.5582 16.2736 20.7612 17.0626 21.9642 17.8501C22.0572 17.9116 22.1532 17.9671 22.2222 18.0586C22.4262 18.3271 22.4022 18.6976 22.1652 18.9346C21.9267 19.1731 21.5562 19.1941 21.2892 18.9931C21.1917 18.9196 21.0852 18.8581 20.9742 18.7831C20.9742 20.2246 20.9742 21.6541 20.9742 23.0881C19.6407 23.0881 18.3147 23.0881 16.9812 23.0881C16.9797 23.0671 16.9782 23.0461 16.9782 23.0251C16.9782 22.6126 16.9782 22.2016 16.9782 21.7891C16.9782 21.2341 16.7907 20.7526 16.4007 20.3581C16.0077 19.9606 15.5262 19.7536 14.9667 19.7656C14.1537 19.7836 13.5597 20.1691 13.1832 20.8861C13.0437 21.1516 12.9822 21.4426 12.9807 21.7426C12.9777 22.1671 12.9807 22.5916 12.9807 23.0176C12.9807 23.0401 12.9807 23.0611 12.9807 23.0881C11.6502 23.0881 10.3212 23.0881 8.98771 23.0881C8.98771 21.6706 8.98771 20.2546 8.98771 18.8266C8.94271 18.8506 8.90671 18.8701 8.87071 18.8896C8.79271 18.9331 8.71621 18.9811 8.63671 19.0201C8.40871 19.1341 8.18221 19.1266 7.96921 18.9886C7.75621 18.8506 7.65271 18.6466 7.66621 18.3916C7.67971 18.1561 7.79071 17.9716 7.99771 17.8546C8.57821 17.5261 9.16021 17.2021 9.74221 16.8766C10.3632 16.5286 10.9857 16.1791 11.6082 15.8326C11.6412 15.8131 11.6517 15.7936 11.6517 15.7561C11.6502 15.1096 11.6502 14.4631 11.6517 13.8166C11.6517 13.7881 11.6652 13.7521 11.6847 13.7296C12.1137 13.2346 12.5442 12.7411 12.9747 12.2461C13.4082 11.7481 13.8432 11.2501 14.2752 10.7506C14.2947 10.7281 14.3097 10.6936 14.3112 10.6651C14.3127 9.94208 14.3127 9.21908 14.3127 8.49608C14.3127 8.47958 14.3112 8.46458 14.3097 8.44358C13.8672 8.44358 13.4292 8.44358 12.9852 8.44358C12.9852 7.99808 12.9852 7.55858 12.9852 7.11158C13.4247 7.11158 13.8642 7.11158 14.3067 7.11158C14.3082 7.09358 14.3112 7.08158 14.3112 7.06958C14.3112 6.64808 14.3112 6.22658 14.3112 5.80658C14.3112 5.79758 14.3097 5.78858 14.3097 5.77958C14.7567 5.77808 15.1992 5.77808 15.6417 5.77808ZM13.6092 15.7621C13.6077 16.5211 14.2182 17.1361 14.9742 17.1376C15.7377 17.1391 16.3542 16.5271 16.3557 15.7651C16.3572 15.0106 15.7392 14.3926 14.9862 14.3911C14.2257 14.3896 13.6107 15.0031 13.6092 15.7621Z" fill="#214C3D"/>
</svg>
