<svg width="391" height="85" viewBox="0 0 391 85" fill="none" xmlns="http://www.w3.org/2000/svg">
<path d="M57.9614 0.0679626C45.0146 0.0679626 35.2578 9.82471 35.2578 22.7715C35.2578 35.7184 45.0146 45.4752 57.9614 45.4752C70.9083 45.4752 80.665 35.7184 80.665 22.7715C80.665 9.82471 70.9083 0.0679626 57.9614 0.0679626ZM57.9614 41.6404C47.2544 41.6404 39.1775 33.5295 39.1775 22.7715C39.1775 12.0136 47.2544 3.90277 57.9614 3.90277C68.6684 3.90277 76.7454 12.0136 76.7454 22.7715C76.7623 33.5295 68.6854 41.6404 57.9614 41.6404Z" fill="#3A3431"/>
<path d="M179.696 20.1244C178.355 19.6323 176.998 19.1912 175.674 18.75C169.566 16.7307 164.288 15 164.288 10.6052C164.288 5.95588 168.989 3.83486 173.35 3.83486C177.744 3.83486 182.479 5.95588 182.479 10.6052V11.5045H186.636V10.6052C186.636 3.32579 179.882 0 173.604 0C166.902 0 160.131 3.64819 160.131 10.6052C160.131 17.7658 167.292 20.0905 174.198 22.3473C175.589 22.8054 177.032 23.2636 178.389 23.7726C183.734 25.7579 186.33 28.8122 186.33 33.1052C186.33 41.5385 176.59 42.2002 173.604 42.2002C167.495 42.2002 160.929 39.1459 160.929 32.4264V31.5271H156.771V32.4264C156.771 41.8948 165.493 46.2047 173.604 46.2047C184.023 46.2047 190.505 41.1652 190.505 33.0373C190.488 26.9457 187.06 22.8393 179.696 20.1244Z" fill="#3A3431"/>
<path d="M192.932 4.86992H205.98V45.3733H210.138V4.86992H223.186V0.865417H192.932V4.86992Z" fill="#3A3431"/>
<path d="M299.084 0.865417H297.183L287.342 24.8077L279.299 44.1856L283.134 45.6448L290.786 27.879H306.058L313.1 45.6448L316.952 44.1856L309.316 25.164L299.084 0.865417ZM292.517 23.8575L298.185 9.14592L304.412 23.8575H292.517Z" fill="#3A3431"/>
<path d="M374.424 18.2749L387.252 3.75L383.96 0.865417L363.802 23.6878V1.01813H359.645V44.9491H363.802V30.2715L371.454 21.6516L386.454 45.0509L390.001 42.879L374.424 18.2749Z" fill="#3A3431"/>
<path d="M8.26455 69.5361H10.3856L17.0032 76.2217V69.5361H18.6831V76.2556L25.3517 69.5361H27.4727L20.3799 76.6629L28.389 84.5701H26.1492L18.6831 77.1889V84.5701H17.0032V77.2228L9.58808 84.5701H7.36523L15.3403 76.6629L8.26455 69.5361Z" fill="#3A3431"/>
<path d="M39.4338 84.5701H38.0254V69.5361H39.6713V81.9061L49.5129 69.5361H50.9892V84.5701H49.3433V72.1493L39.4338 84.5701Z" fill="#3A3431"/>
<path d="M67.9411 84.5701H66.2613V70.9785H60.8145V69.5361H73.4559V70.9785H67.9411V84.5701Z" fill="#3A3431"/>
<path d="M80.127 84.5701V83.1108C80.2797 83.1447 80.4833 83.1617 80.7548 83.1617C81.4505 83.1617 81.9935 82.9412 82.4177 82.466C82.8249 82.0079 83.1643 81.3461 83.4188 80.4637C83.6055 79.8698 83.7242 79.2251 83.7751 78.5294C83.86 77.7319 83.9279 76.9683 83.9788 76.2556C84.0127 75.7296 84.0466 74.8472 84.0636 73.6425L84.1485 69.5361H94.0579V84.5701H92.3781V70.9785H85.7774L85.6586 74.4061C85.5738 77.2228 85.3362 79.3439 84.9799 80.7692C84.6575 82.0588 84.1654 83.009 83.5036 83.6199C82.8249 84.2307 81.9086 84.5531 80.7378 84.604C80.4154 84.587 80.2118 84.5871 80.127 84.5701Z" fill="#3A3431"/>
<path d="M106.917 71.5214C108.444 70.0282 110.345 69.2816 112.618 69.2816C114.875 69.2816 116.776 70.0282 118.286 71.5214C119.813 73.0147 120.576 74.8642 120.576 77.0701C120.576 79.2929 119.813 81.1425 118.286 82.6357C116.776 84.1119 114.892 84.8416 112.618 84.8416C110.328 84.8416 108.427 84.1119 106.917 82.6357C105.407 81.1594 104.66 79.3099 104.66 77.0701C104.66 74.8303 105.407 72.9807 106.917 71.5214ZM108.156 81.5497C109.343 82.7545 110.837 83.3484 112.601 83.3484C114.383 83.3484 115.859 82.7545 117.047 81.5497C118.252 80.328 118.863 78.8348 118.863 77.0531C118.863 75.2715 118.252 73.7783 117.047 72.5565C115.859 71.3518 114.366 70.7579 112.601 70.7579C110.82 70.7579 109.343 71.3518 108.156 72.5565C106.951 73.7783 106.34 75.2715 106.34 77.0531C106.357 78.8348 106.951 80.328 108.156 81.5497Z" fill="#3A3431"/>
<path d="M138.752 84.5701H131.201V69.5361H138.056C139.465 69.5361 140.568 69.8586 141.382 70.5203C142.197 71.1651 142.604 72.0644 142.604 73.2013C142.604 73.9818 142.417 74.6436 142.044 75.2036C141.671 75.7636 141.162 76.1538 140.517 76.3914C141.569 76.5441 142.4 76.9853 143.028 77.6979C143.639 78.4106 143.961 79.3099 143.961 80.3959C143.961 81.6685 143.486 82.6866 142.553 83.4502C141.62 84.1968 140.347 84.5701 138.752 84.5701ZM132.881 70.9785V75.8993H137.785C138.803 75.8993 139.567 75.6956 140.127 75.2714C140.67 74.8642 140.958 74.2533 140.958 73.4728C140.958 72.6753 140.686 72.0475 140.127 71.6233C139.584 71.199 138.803 70.9785 137.785 70.9785H132.881ZM132.881 77.2907V83.1278H138.464C139.634 83.1278 140.551 82.8733 141.196 82.3472C141.84 81.8382 142.163 81.1086 142.163 80.1753C142.163 79.259 141.84 78.5463 141.196 78.0373C140.551 77.5282 139.634 77.2737 138.464 77.2737L132.881 77.2907Z" fill="#3A3431"/>
<path d="M155.805 84.5701H154.396V69.5361H156.042V81.9061L165.884 69.5361H167.36V84.5701H165.714V72.1493L155.805 84.5701Z" fill="#3A3431"/>
<path d="M179.985 84.5702H178.576V69.5362H180.222V81.9061L190.064 69.5362H191.54V84.5702H189.894V72.1494L179.985 84.5702ZM185.058 68.4842C183.921 68.4842 183.022 68.1957 182.326 67.5849C181.647 66.991 181.291 66.1935 181.274 65.2093H182.716C182.716 65.8032 182.92 66.2953 183.344 66.6686C183.768 67.0419 184.328 67.2286 185.041 67.2286C185.72 67.2286 186.263 67.0419 186.687 66.6686C187.094 66.2953 187.315 65.8032 187.332 65.2093H188.774C188.74 66.1935 188.384 66.991 187.688 67.6019C186.992 68.1958 186.11 68.4842 185.058 68.4842Z" fill="#3A3431"/>
<path d="M215.518 69.5361H217.197V76.0689L224.528 69.5361H226.751L218.979 76.4083L227.955 84.5701H225.597L217.214 76.9174V84.5701H215.535V69.5361H215.518Z" fill="#3A3431"/>
<path d="M237.642 71.5214C239.169 70.0282 241.069 69.2816 243.343 69.2816C245.6 69.2816 247.5 70.0282 249.011 71.5214C250.538 73.0147 251.301 74.8642 251.301 77.0701C251.301 79.2929 250.538 81.1425 249.011 82.6357C247.5 84.1119 245.617 84.8416 243.343 84.8416C241.052 84.8416 239.152 84.1119 237.642 82.6357C236.132 81.1594 235.385 79.3099 235.385 77.0701C235.368 74.8303 236.132 72.9807 237.642 71.5214ZM238.881 81.5497C240.068 82.7545 241.562 83.3484 243.326 83.3484C245.108 83.3484 246.584 82.7545 247.772 81.5497C248.977 80.328 249.588 78.8348 249.588 77.0531C249.588 75.2715 248.994 73.7783 247.772 72.5565C246.584 71.3518 245.091 70.7579 243.326 70.7579C241.545 70.7579 240.068 71.3518 238.881 72.5565C237.676 73.7783 237.065 75.2715 237.065 77.0531C237.065 78.8348 237.676 80.328 238.881 81.5497Z" fill="#3A3431"/>
<path d="M263.57 84.5701H261.924V69.5361H263.57L269.288 76.8156L275.006 69.5361H276.635V84.5701H274.989V71.9457L269.814 78.5124H268.796L263.57 71.9457V84.5701Z" fill="#3A3431"/>
<path d="M289.531 84.5701H287.852V69.5361H300.255V84.5701H298.576V70.9785H289.514L289.531 84.5701Z" fill="#3A3431"/>
<path d="M309.572 84.5701V83.1108C309.725 83.1447 309.929 83.1617 310.2 83.1617C310.896 83.1617 311.439 82.9412 311.863 82.466C312.27 82.0079 312.61 81.3461 312.864 80.4637C313.051 79.8698 313.17 79.2251 313.22 78.5294C313.305 77.7319 313.373 76.9683 313.424 76.2556C313.458 75.7296 313.492 74.8472 313.509 73.6425L313.594 69.5361H323.503V84.5701H321.823V70.9785H315.223L315.104 74.4061C315.019 77.2228 314.782 79.3439 314.425 80.7692C314.103 82.0588 313.611 83.009 312.949 83.6199C312.287 84.2307 311.354 84.5531 310.183 84.604C309.861 84.587 309.64 84.5871 309.572 84.5701Z" fill="#3A3431"/>
<path d="M345.95 84.5701H334.768V69.5361H345.627V70.9785H336.447V75.7805H343.981V77.2228H336.447V83.1278H345.967L345.95 84.5701Z" fill="#3A3431"/>
<path d="M355.994 69.5361H357.674V76.0689L365.004 69.5361H367.227L359.456 76.4083L368.432 84.5701H366.073L357.691 76.9174V84.5701H356.011V69.5361H355.994Z" fill="#3A3431"/>
<path d="M383.978 84.8246C381.67 84.8246 379.736 84.095 378.175 82.6357C376.631 81.1764 375.867 79.3099 375.867 77.0531C375.867 74.8133 376.631 72.9468 378.175 71.4875C379.719 70.0113 381.67 69.2816 383.978 69.2816C385.692 69.2816 387.168 69.6549 388.407 70.4015V72.0305C387.015 71.1821 385.556 70.7579 383.995 70.7579C382.179 70.7579 380.652 71.3518 379.414 72.5565C378.175 73.7274 377.564 75.2206 377.564 77.0531C377.564 78.8857 378.175 80.3959 379.414 81.5667C380.669 82.7545 382.213 83.3484 384.046 83.3484C385.879 83.3484 387.457 82.8393 388.746 81.8382V83.5011C387.44 84.3834 385.862 84.8246 383.978 84.8246Z" fill="#3A3431"/>
<path d="M266.488 0.865417H249.265C247.381 0.865417 245.684 1.54414 244.208 2.86767C242.851 4.08939 242.121 5.66745 242.121 7.43215V7.80546H246.601V7.41517C246.601 6.78734 246.923 6.04074 247.398 5.61653C247.856 5.19232 248.315 4.97173 249.434 4.92082H249.451C249.451 4.92082 249.57 4.92082 249.757 4.92082V44.457H253.914V27.879H266.471C274.208 27.879 280.486 21.8383 280.486 14.3722C280.503 6.90613 274.225 0.865417 266.488 0.865417ZM276.261 14.3722C276.261 19.5815 271.884 23.8066 266.471 23.8066H253.982V4.93781H266.471C271.884 4.93781 276.261 9.16291 276.261 14.3722Z" fill="#3A3431"/>
<path d="M154.531 4.86992V0.865417H126.278C124.395 0.865417 122.698 1.54414 121.222 2.86767C119.864 4.08939 119.135 5.66745 119.135 7.43215V7.80546H123.614V7.41517C123.614 6.77037 123.937 6.04074 124.412 5.61653C124.87 5.19232 125.328 4.97172 126.448 4.92082H126.465C126.482 4.92082 126.618 4.92082 126.787 4.92082V45.3733H154.514V41.3518H130.945V27.7432H147.54V23.7387H130.945V4.86992H154.531Z" fill="#3A3431"/>
<path d="M111.857 25.6391C115.692 23.2296 118.237 19.0723 118.237 14.3382C118.237 6.88908 111.976 0.848389 104.238 0.848389H86.9816C85.0981 0.848389 83.4012 1.52711 81.925 2.85064C80.5675 4.07236 79.8379 5.65042 79.8379 7.41512V7.78843H84.3175V7.41512C84.3175 6.78729 84.6399 6.04069 85.115 5.61648C85.5732 5.19228 86.0313 4.97168 87.1512 4.92078H87.1682C87.1682 4.92078 87.287 4.92078 87.4906 4.92078V44.9491H91.6478V27.845H108.514L116.371 45.3054L119.968 43.3031L111.857 25.6391ZM104.238 23.7386H91.7327V4.93776H104.238C109.634 4.93776 113.995 9.14587 113.995 14.3382C113.995 19.5305 109.634 23.7386 104.238 23.7386Z" fill="#3A3431"/>
<path d="M345.101 25.6391C348.936 23.2296 351.481 19.0723 351.481 14.3382C351.481 6.88908 345.22 0.848389 337.482 0.848389H320.226C318.342 0.848389 316.645 1.52711 315.169 2.85064C313.812 4.07236 313.082 5.65042 313.082 7.41512V7.78843H317.562V7.41512C317.562 6.78729 317.884 6.04069 318.359 5.61648C318.817 5.19228 319.275 4.97168 320.395 4.92078H320.412C320.412 4.92078 320.531 4.92078 320.718 4.92078V23.8235V44.9491H324.875V27.845H341.742L349.598 45.3054L353.195 43.3031L345.101 25.6391ZM337.499 23.7386H324.994V4.93776H337.499C342.895 4.93776 347.256 9.14587 347.256 14.3382C347.256 19.5305 342.878 23.7386 337.499 23.7386Z" fill="#3A3431"/>
<path d="M35.3959 4.98871V0.865417H7.14366C5.26018 0.865417 3.56335 1.54414 2.0871 2.86767C0.729637 4.08939 0 5.66745 0 7.43215V7.80546H4.47964V7.41517C4.47964 6.78734 4.80203 6.04074 5.27714 5.61653C5.73529 5.19232 6.19343 4.97173 7.31334 4.92082H7.33032C7.33032 4.92082 7.44909 4.92082 7.61877 4.92082V45.2206H11.9287V23.9763H28.405V19.6324H11.9287V5.00564H35.3959V4.98871Z" fill="#3A3431"/>
</svg>
