<svg width="88" height="50" viewBox="0 0 88 50" fill="none" xmlns="http://www.w3.org/2000/svg">
<path d="M7.70113 45.8489H8.78527V48.9903C8.37404 49.3269 7.92543 49.5886 7.40206 49.7382C6.87868 49.9252 6.31792 50 5.75716 50C4.93472 50 4.22442 49.813 3.55151 49.4764C2.91598 49.1399 2.39261 48.6163 2.01877 48.0179C1.64493 47.3822 1.45801 46.709 1.45801 45.9237C1.45801 45.1384 1.64493 44.4278 2.01877 43.8295C2.39261 43.1937 2.91598 42.7076 3.55151 42.371C4.18704 42.0344 4.93472 41.8474 5.75716 41.8474C6.39269 41.8474 6.99083 41.9596 7.51421 42.1466C8.03758 42.371 8.48619 42.6702 8.86003 43.0815L8.14973 43.7921C7.51421 43.1563 6.72915 42.8571 5.83193 42.8571C5.23379 42.8571 4.67303 43.0067 4.18704 43.2685C3.70105 43.5303 3.32721 43.9043 3.06552 44.353C2.80383 44.8392 2.65429 45.3628 2.65429 45.9237C2.65429 46.5221 2.80383 47.0456 3.06552 47.4944C3.32721 47.9806 3.73843 48.3171 4.18704 48.6163C4.67303 48.8781 5.23379 49.0277 5.83193 49.0277C6.54223 49.0277 7.17775 48.8407 7.70113 48.5041V45.8489Z" fill="white"/>
<path d="M25.757 49.8879L24.0374 47.4197C23.8131 47.4197 23.6635 47.4571 23.5514 47.4571H21.57V49.8879H20.4111V41.8475H23.5514C24.5981 41.8475 25.4206 42.1093 26.0187 42.5955C26.6169 43.0816 26.9159 43.7922 26.9159 44.6523C26.9159 45.2881 26.7664 45.8116 26.4673 46.223C26.1683 46.6718 25.7196 46.971 25.1589 47.1579L27.0655 49.8505H25.757V49.8879ZM25.1589 45.9986C25.5327 45.6994 25.7196 45.2507 25.7196 44.6523C25.7196 44.054 25.5327 43.6426 25.1589 43.306C24.785 43.0069 24.2243 42.8573 23.514 42.8573H21.57V46.4848H23.514C24.2243 46.4848 24.785 46.3352 25.1589 45.9986Z" fill="white"/>
<path d="M57.9822 49.0652C57.384 48.4668 57.085 47.5693 57.085 46.4473V41.8849H58.2439V46.41C58.2439 48.1302 58.9915 48.9904 60.4869 48.9904C61.2346 48.9904 61.7953 48.766 62.1692 48.3546C62.543 47.9432 62.7673 47.2701 62.7673 46.41V41.8849H63.8888V46.4473C63.8888 47.6067 63.5898 48.4668 62.9916 49.1026C62.3935 49.7009 61.571 50.0001 60.4869 50.0001C59.4028 50.0001 58.5429 49.7009 57.9822 49.0652Z" fill="white"/>
<path d="M81.1603 42.6328C81.7585 43.119 82.0575 43.8295 82.0575 44.6897C82.0575 45.5498 81.7585 46.2604 81.1603 46.7465C80.5622 47.2327 79.7397 47.4945 78.693 47.4945H76.7116V49.9253H75.5527V41.8849H78.693C79.7771 41.8849 80.5622 42.1093 81.1603 42.6328ZM80.3379 45.9986C80.7117 45.6994 80.8986 45.2506 80.8986 44.6523C80.8986 44.0539 80.7117 43.6426 80.3379 43.306C79.964 43.0068 79.4033 42.8572 78.693 42.8572H76.749V46.4473H78.693C79.4033 46.4847 79.964 46.3352 80.3379 45.9986Z" fill="white"/>
<path d="M13.3461 20.1571L10.2058 23.7472H26.6921V30.5909H0V25.7293L1.75705 23.7472L9.12168 15.2954L16.4489 6.88108H0V0H26.6921V4.86163L24.9351 6.88108L17.5705 15.2954L13.3461 20.1571Z" fill="white"/>
<path d="M87.8525 0V30.5909H81.0113V11.7053L72.5625 20.1571L67.7026 15.2954L64.1511 11.7053V30.5909H57.2725V0H62.1324L64.1511 2.01945L72.5625 10.4712L81.0113 2.01945L83.03 0H87.8525Z" fill="white"/>
<path d="M45.3842 0H38.543V30.5909H45.3842V0Z" fill="white"/>
<path d="M39.6278 49.4764C38.9923 49.1398 38.5063 48.6163 38.1699 48.0179C37.796 47.3822 37.6465 46.6716 37.6465 45.8863C37.6465 45.1009 37.8334 44.3904 38.1699 43.7546C38.5437 43.1189 39.0297 42.6327 39.6278 42.2961C40.2634 41.9596 40.9736 41.7726 41.7213 41.7726C42.5064 41.7726 43.2167 41.9596 43.8148 42.2961C44.4504 42.6327 44.9363 43.1189 45.2728 43.7546C45.6092 44.3904 45.7962 45.1009 45.7962 45.8863C45.7962 46.6716 45.6092 47.3822 45.2728 48.0179C44.9363 48.6537 44.413 49.1398 43.8148 49.4764C43.1793 49.813 42.469 50 41.7213 50C40.9363 50 40.226 49.8504 39.6278 49.4764Z" fill="#12B259"/>
</svg>
