<svg width="24" height="24" viewBox="0 0 24 24" fill="none" xmlns="http://www.w3.org/2000/svg">
<path d="M12 0C5.37256 0 0 5.2602 0 11.749C0 18.2379 5.37256 23.498 12 23.498C18.6274 23.498 24 18.2379 24 11.749C24 5.2602 18.6274 0 12 0ZM16.578 5.98329L14.9183 5.98401C13.6168 5.98401 13.3651 6.58955 13.3651 7.47803V9.4372H16.4688L16.4673 12.5058H13.3654V20.3804H10.1281V12.5058H7.42195V9.4372H10.1281V7.17418C10.1281 4.54792 11.767 3.11761 14.1596 3.11761L16.5783 3.12121V5.98329H16.578Z" fill="white" fill-opacity="0.75"/>
</svg>
