<svg width="16" height="16" fill="none" xmlns="http://www.w3.org/2000/svg"><path d="M4.875 6.125c-.815 0-1.51.523-1.767 1.25H0v1.25h3.108c.257.727.952 1.25 1.767 1.25s1.51-.523 1.767-1.25H16v-1.25H6.642a1.878 1.878 0 00-1.767-1.25zm0 2.5a.626.626 0 11.001-1.251.626.626 0 01-.001 1.251zm8.393-7A1.878 1.878 0 0011.5.375c-.815 0-1.51.523-1.767 1.25H0v1.25h9.733c.257.727.952 1.25 1.767 1.25s1.51-.523 1.768-1.25H16v-1.25h-2.732zM11.5 2.875a.626.626 0 11.001-1.251.626.626 0 01-.001 1.251zm-1.188 9c-.814 0-1.509.523-1.767 1.25H0v1.25h8.545c.258.727.953 1.25 1.768 1.25.814 0 1.509-.523 1.767-1.25H16v-1.25h-3.92a1.878 1.878 0 00-1.768-1.25zm0 2.5a.626.626 0 11.002-1.251.626.626 0 01-.002 1.251z" fill="#fff"/></svg>