<svg width="24" height="24" fill="none" xmlns="http://www.w3.org/2000/svg"><g clip-path="url(#clip0)" fill="#fff" fill-opacity=".75"><path d="M14.297 11.75c0 1.241-1.028 2.248-2.297 2.248-1.269 0-2.297-1.007-2.297-2.249C9.703 10.507 10.731 9.5 12 9.5c1.269 0 2.297 1.007 2.297 2.25z"/><path d="M17.372 7.77a2.086 2.086 0 00-.516-.775 2.138 2.138 0 00-.792-.505c-.243-.092-.608-.202-1.28-.232-.726-.033-.944-.04-2.784-.04-1.84 0-2.058.007-2.784.04-.672.03-1.037.14-1.28.232-.3.108-.57.28-.792.505a2.088 2.088 0 00-.516.775c-.094.238-.206.595-.237 1.253-.033.711-.04.925-.04 2.726 0 1.802.007 2.015.04 2.726.03.658.143 1.015.237 1.253.11.293.287.558.516.776.222.224.493.396.792.505.243.092.608.202 1.28.232.726.032.944.04 2.784.04 1.84 0 2.058-.008 2.784-.04.672-.03 1.037-.14 1.28-.232a2.258 2.258 0 001.308-1.28c.094-.239.206-.596.237-1.253.033-.712.04-.925.04-2.727 0-1.801-.007-2.015-.04-2.726-.03-.658-.143-1.015-.237-1.253zM12 15.213c-1.954 0-3.539-1.55-3.539-3.464 0-1.913 1.585-3.464 3.539-3.464 1.954 0 3.538 1.55 3.538 3.464 0 1.913-1.584 3.464-3.538 3.464zm3.678-6.256a.818.818 0 01-.827-.81c0-.446.37-.809.827-.809.457 0 .827.363.827.81 0 .447-.37.81-.827.81z"/><path d="M12 0C5.374 0 0 5.261 0 11.749s5.374 11.749 12 11.749 12-5.261 12-11.749S18.626 0 12 0zm6.85 14.53c-.034.719-.15 1.209-.321 1.638a3.488 3.488 0 01-2.015 1.973c-.439.167-.94.281-1.673.314-.735.033-.97.04-2.84.04-1.872 0-2.107-.007-2.842-.04-.733-.033-1.234-.147-1.672-.314a3.383 3.383 0 01-1.221-.778 3.3 3.3 0 01-.795-1.195c-.17-.429-.287-.92-.32-1.637-.034-.72-.042-.95-.042-2.782s.008-2.062.042-2.781c.033-.719.15-1.209.32-1.638a3.3 3.3 0 01.795-1.195c.344-.343.76-.609 1.22-.778.439-.167.94-.281 1.673-.314.735-.033.97-.04 2.841-.04 1.871 0 2.106.007 2.84.04s1.235.147 1.674.314c.46.169.876.435 1.22.778.35.337.622.745.795 1.195.17.43.287.92.32 1.638.034.719.042.949.042 2.781 0 1.832-.008 2.062-.042 2.781z"/></g><defs><clipPath id="clip0"><path fill="#fff" d="M0 0h24v23.498H0z"/></clipPath></defs></svg>