<svg width="16" height="10" fill="none" xmlns="http://www.w3.org/2000/svg"><path d="M8.008.004c2.265 0 4.53.003 6.794-.004.29 0 .519.076.726.227.065.047.126.098.186.152.195.177.299.375.29.628-.004.144-.052.23-.19.321-2.114 1.371-4.223 2.75-6.336 4.125-.346.224-.692.444-1.038.664-.038.025-.077.043-.116.061-.35.192-.705.195-1.046-.007a33.78 33.78 0 01-1.085-.668C4.438 4.377 2.693 3.248.942 2.115L.073 1.54A.13.13 0 010 1.415c.004-.17.004-.34 0-.51A.527.527 0 01.103.582C.255.375.453.209.7.087a.87.87 0 01.384-.083h6.924z" fill="#fff"/><path d="M9.884 6.218L14.971 10H.877a1.5 1.5 0 01.082-.065C2.572 8.751 4.188 7.568 5.8 6.38c.065-.046.1-.04.169-.003.345.198.683.408 1.046.584.531.264 1.076.242 1.616-.007.41-.187.778-.426 1.145-.667.026-.018.065-.04.108-.069zm6.056 3.385c-1.75-1.303-3.501-2.602-5.265-3.916l5.32-3.464v5.908c-.004.487.01.974-.008 1.461a.13.13 0 01-.047.011zM.009 9.495V2.537c1.685 1.09 3.362 2.18 5.056 3.273L.03 9.506a.1.1 0 00-.021-.011z" fill="#fff"/></svg>