<svg width="15" height="22" fill="none" xmlns="http://www.w3.org/2000/svg"><path d="M7.269 21.429h-.065c-.034-.066-.064-.133-.103-.195-1.508-2.482-3.008-4.964-4.525-7.438A22.944 22.944 0 01.553 9.66C.326 9.034.18 8.388 0 7.75V6.548c.021-.079.051-.162.064-.24.532-3.05 2.302-5.122 5.357-5.976 3.073-.858 5.765-.033 7.839 2.325 1.5 1.703 2.096 3.704 1.521 5.934-.321 1.247-.895 2.403-1.585 3.493-1.912 3.021-3.853 6.03-5.777 9.042-.06.092-.099.2-.15.303zM7.474 2.9c-2.361-.008-4.281 1.844-4.298 4.144-.017 2.28 1.903 4.165 4.268 4.177 2.37.017 4.312-1.856 4.316-4.16 0-2.288-1.92-4.153-4.286-4.16z" fill="#fff"/></svg>