<svg width="20" height="14" fill="none" xmlns="http://www.w3.org/2000/svg"><path d="M19.984 12.962v1.013h-7.098v-1.013h1.41c-.475-1.332-.945-2.644-1.423-3.987l-2.79 5.009c-.97-1.671-1.928-3.326-2.903-5.009l-1.423 3.987H7.17v1.016H.016v-1.016h.308c.282 0 .565-.007.847.003.117.005.164-.04.204-.142A13242.122 13242.122 0 016.343.31c.01-.024.023-.048.044-.093L10.08 7.26c.036-.066.066-.116.091-.168 1.14-2.232 2.279-4.466 3.42-6.696.024-.048.063-.107.108-.123.093-.035.138.024.174.115.46 1.193.924 2.382 1.386 3.573 1.15 2.958 2.3 5.916 3.446 8.876.037.096.085.127.187.126.36-.006.72-.002 1.092-.002z" fill="#E63027"/></svg>