<svg width="19" height="18" fill="none" xmlns="http://www.w3.org/2000/svg"><path d="M15.205 11.085c-.653-.631-1.469-.631-2.118 0-.495.481-.99.962-1.477 1.45-.134.135-.246.164-.408.074-.32-.17-.662-.31-.97-.497-1.436-.884-2.639-2.021-3.704-3.3-.529-.636-.999-1.317-1.328-2.083-.066-.155-.054-.256.075-.383.496-.468.978-.95 1.465-1.43.679-.668.679-1.45-.004-2.123-.387-.383-.774-.758-1.161-1.141-.4-.391-.795-.786-1.199-1.174-.653-.623-1.469-.623-2.118.005-.5.48-.978.973-1.486 1.446-.47.436-.707.97-.757 1.593-.08 1.015.175 1.973.532 2.906.733 1.931 1.848 3.647 3.2 5.22a19.752 19.752 0 006.56 5.024c1.149.546 2.339.966 3.633 1.035.89.049 1.665-.171 2.285-.852.424-.464.903-.888 1.353-1.332.666-.66.67-1.46.008-2.111-.79-.778-1.586-1.553-2.38-2.327z" fill="#fff"/></svg>