<svg width="14" height="14" fill="none" xmlns="http://www.w3.org/2000/svg"><path d="M11.404 8.923c-.49-.484-1.102-.484-1.589 0-.371.368-.743.736-1.108 1.111-.1.103-.184.125-.306.056-.24-.13-.496-.237-.727-.38-1.077-.679-1.979-1.55-2.778-2.53-.397-.487-.75-1.008-.996-1.595-.05-.119-.04-.197.056-.293.372-.36.734-.728 1.1-1.096.508-.512.508-1.111-.004-1.626-.29-.294-.58-.58-.87-.874-.3-.3-.597-.603-.9-.9C2.792.32 2.18.32 1.693.802 1.32 1.169.96 1.547.58 1.909a1.81 1.81 0 00-.568 1.22c-.06.778.131 1.511.4 2.226.549 1.48 1.385 2.794 2.4 3.999a14.854 14.854 0 004.92 3.848c.86.419 1.753.74 2.724.793.668.038 1.249-.13 1.714-.652.318-.356.677-.68 1.014-1.02.5-.507.503-1.118.007-1.618-.593-.596-1.19-1.19-1.786-1.782z" fill="#313339"/></svg>