<svg width="20" height="20" fill="none" xmlns="http://www.w3.org/2000/svg"><path d="M9.416 0h1.17c.138.014.284.035.422.048 1.634.18 3.143.693 4.507 1.613 2.354 1.593 3.808 3.794 4.327 6.598.069.38.104.768.159 1.156v1.17c-.014.055-.028.11-.035.166a9.901 9.901 0 01-.692 2.99c-1.627 4.092-5.898 6.681-10.273 6.21-1.634-.172-3.15-.685-4.507-1.613C1.718 16.436.209 13.79.022 10.427a9.386 9.386 0 011.156-5.11C2.728 2.493 5.096.777 8.26.167 8.64.083 9.028.048 9.416 0zM7.284 5.656v8.681c2.513-1.447 4.998-2.887 7.518-4.34-2.52-1.454-5.012-2.887-7.518-4.341z" fill="#12B259"/></svg>