<svg width="72" height="72" fill="none" xmlns="http://www.w3.org/2000/svg"><circle cx="36" cy="36" r="36" fill="#12B259"/><path d="M53.424 25.645l-1.18-1.18a1.953 1.953 0 00-1.391-.574 1.95 1.95 0 00-1.392.575L32.89 41.034 22.538 30.682a1.956 1.956 0 00-1.392-.574c-.527 0-1.021.204-1.392.574l-1.18 1.179c-.37.371-.574.866-.574 1.393s.204 1.021.575 1.392l11.688 11.688a.44.44 0 00.051.061l1.18 1.16c.37.37.864.554 1.396.554h.006c.528 0 1.022-.184 1.392-.554l1.18-1.17c.019-.019.035-.034.045-.05l17.91-17.91a1.966 1.966 0 00.001-2.78z" fill="#fff"/></svg>