<svg width="184" height="40" viewBox="0 0 184 40" fill="none" xmlns="http://www.w3.org/2000/svg">
<path d="M27.327 0.0320435C21.223 0.0320435 16.623 4.63202 16.623 10.736C16.623 16.84 21.223 21.44 27.327 21.44C33.431 21.44 38.031 16.84 38.031 10.736C38.031 4.63202 33.431 0.0320435 27.327 0.0320435ZM27.327 19.632C22.279 19.632 18.471 15.808 18.471 10.736C18.471 5.66402 22.279 1.84003 27.327 1.84003C32.375 1.84003 36.183 5.66402 36.183 10.736C36.191 15.808 32.383 19.632 27.327 19.632Z" fill="white"/>
<path d="M84.7201 9.48799C84.0881 9.25599 83.4481 9.04799 82.8241 8.83999C79.9441 7.88799 77.4561 7.072 77.4561 5C77.4561 2.808 79.6721 1.80801 81.7281 1.80801C83.8001 1.80801 86.0321 2.808 86.0321 5V5.424H87.9921V5C87.9921 1.568 84.8081 0 81.8481 0C78.6881 0 75.4961 1.72 75.4961 5C75.4961 8.376 78.8721 9.47199 82.1281 10.536C82.7841 10.752 83.4641 10.968 84.1041 11.208C86.6241 12.144 87.8481 13.584 87.8481 15.608C87.8481 19.584 83.2561 19.896 81.8481 19.896C78.9681 19.896 75.8721 18.456 75.8721 15.288V14.864H73.9121V15.288C73.9121 19.752 78.0241 21.784 81.8481 21.784C86.7601 21.784 89.8161 19.408 89.8161 15.576C89.8081 12.704 88.1921 10.768 84.7201 9.48799Z" fill="white"/>
<path d="M90.9609 2.29601H97.1129V21.392H99.0729V2.29601H105.225V0.40802H90.9609V2.29601Z" fill="white"/>
<path d="M141.008 0.40802H140.112L135.472 11.696L131.68 20.832L133.488 21.52L137.096 13.144H144.296L147.616 21.52L149.432 20.832L145.832 11.864L141.008 0.40802ZM137.912 11.248L140.584 4.312L143.52 11.248H137.912Z" fill="white"/>
<path d="M176.529 8.616L182.577 1.76801L181.025 0.40802L171.521 11.168V0.480017H169.561V21.192H171.521V14.272L175.129 10.208L182.201 21.24L183.873 20.216L176.529 8.616Z" fill="white"/>
<path d="M3.89666 32.784H4.89666L8.01666 35.936V32.784H8.80865V35.952L11.9527 32.784H12.9527L9.60865 36.144L13.3847 39.872H12.3287L8.80865 36.392V39.872H8.01666V36.408L4.52065 39.872H3.47266L7.23265 36.144L3.89666 32.784Z" fill="white"/>
<path d="M18.5917 39.872H17.9277V32.784H18.7037V38.616L23.3437 32.784H24.0397V39.872H23.2637V34.016L18.5917 39.872Z" fill="white"/>
<path d="M32.0319 39.872H31.2399V33.464H28.6719V32.784H34.6319V33.464H32.0319V39.872Z" fill="white"/>
<path d="M37.7773 39.872V39.184C37.8493 39.2 37.9453 39.208 38.0733 39.208C38.4013 39.208 38.6573 39.104 38.8573 38.88C39.0493 38.664 39.2093 38.352 39.3293 37.936C39.4173 37.656 39.4733 37.352 39.4973 37.024C39.5373 36.648 39.5693 36.288 39.5933 35.952C39.6093 35.704 39.6253 35.288 39.6333 34.72L39.6733 32.784H44.3453V39.872H43.5533V33.464H40.4413L40.3853 35.08C40.3453 36.408 40.2333 37.408 40.0653 38.08C39.9133 38.688 39.6813 39.136 39.3693 39.424C39.0493 39.712 38.6173 39.864 38.0653 39.888C37.9133 39.88 37.8173 39.88 37.7773 39.872Z" fill="white"/>
<path d="M50.4078 33.72C51.1278 33.016 52.0238 32.664 53.0958 32.664C54.1598 32.664 55.0557 33.016 55.7677 33.72C56.4877 34.424 56.8478 35.296 56.8478 36.336C56.8478 37.384 56.4877 38.256 55.7677 38.96C55.0557 39.656 54.1678 40 53.0958 40C52.0158 40 51.1198 39.656 50.4078 38.96C49.6958 38.264 49.3438 37.392 49.3438 36.336C49.3438 35.28 49.6958 34.408 50.4078 33.72ZM50.9918 38.448C51.5518 39.016 52.2558 39.296 53.0878 39.296C53.9278 39.296 54.6238 39.016 55.1838 38.448C55.7518 37.872 56.0398 37.168 56.0398 36.328C56.0398 35.488 55.7518 34.784 55.1838 34.208C54.6238 33.64 53.9198 33.36 53.0878 33.36C52.2478 33.36 51.5518 33.64 50.9918 34.208C50.4238 34.784 50.1358 35.488 50.1358 36.328C50.1438 37.168 50.4238 37.872 50.9918 38.448Z" fill="white"/>
<path d="M65.4174 39.872H61.8574V32.784H65.0894C65.7534 32.784 66.2734 32.936 66.6574 33.248C67.0414 33.552 67.2334 33.976 67.2334 34.512C67.2334 34.88 67.1454 35.192 66.9694 35.456C66.7934 35.72 66.5534 35.904 66.2494 36.016C66.7454 36.088 67.1374 36.296 67.4334 36.632C67.7214 36.968 67.8734 37.392 67.8734 37.904C67.8734 38.504 67.6494 38.984 67.2094 39.344C66.7694 39.696 66.1694 39.872 65.4174 39.872ZM62.6494 33.464V35.784H64.9614C65.4414 35.784 65.8014 35.688 66.0654 35.488C66.3214 35.296 66.4574 35.008 66.4574 34.64C66.4574 34.264 66.3294 33.968 66.0654 33.768C65.8094 33.568 65.4414 33.464 64.9614 33.464H62.6494ZM62.6494 36.44V39.192H65.2814C65.8334 39.192 66.2654 39.072 66.5694 38.824C66.8734 38.584 67.0254 38.24 67.0254 37.8C67.0254 37.368 66.8734 37.032 66.5694 36.792C66.2654 36.552 65.8334 36.432 65.2814 36.432L62.6494 36.44Z" fill="white"/>
<path d="M73.457 39.872H72.793V32.784H73.569V38.616L78.209 32.784H78.905V39.872H78.129V34.016L73.457 39.872Z" fill="white"/>
<path d="M84.8574 39.872H84.1934V32.784H84.9694V38.616L89.6094 32.784H90.3054V39.872H89.5294V34.016L84.8574 39.872ZM87.2494 32.288C86.7134 32.288 86.2894 32.152 85.9614 31.864C85.6414 31.584 85.4734 31.208 85.4654 30.744H86.1454C86.1454 31.024 86.2414 31.256 86.4414 31.432C86.6414 31.608 86.9054 31.696 87.2414 31.696C87.5614 31.696 87.8174 31.608 88.0174 31.432C88.2094 31.256 88.3134 31.024 88.3214 30.744H89.0014C88.9854 31.208 88.8174 31.584 88.4894 31.872C88.1614 32.152 87.7454 32.288 87.2494 32.288Z" fill="white"/>
<path d="M101.609 32.784H102.401V35.864L105.857 32.784H106.905L103.241 36.024L107.473 39.872H106.361L102.409 36.264V39.872H101.617V32.784H101.609Z" fill="white"/>
<path d="M112.041 33.72C112.761 33.016 113.657 32.664 114.729 32.664C115.793 32.664 116.689 33.016 117.401 33.72C118.121 34.424 118.481 35.296 118.481 36.336C118.481 37.384 118.121 38.256 117.401 38.96C116.689 39.656 115.801 40 114.729 40C113.649 40 112.753 39.656 112.041 38.96C111.329 38.264 110.977 37.392 110.977 36.336C110.969 35.28 111.329 34.408 112.041 33.72ZM112.625 38.448C113.185 39.016 113.889 39.296 114.721 39.296C115.561 39.296 116.257 39.016 116.817 38.448C117.385 37.872 117.673 37.168 117.673 36.328C117.673 35.488 117.393 34.784 116.817 34.208C116.257 33.64 115.553 33.36 114.721 33.36C113.881 33.36 113.185 33.64 112.625 34.208C112.057 34.784 111.769 35.488 111.769 36.328C111.769 37.168 112.057 37.872 112.625 38.448Z" fill="white"/>
<path d="M124.264 39.872H123.488V32.784H124.264L126.96 36.216L129.656 32.784H130.424V39.872H129.648V33.92L127.208 37.016H126.728L124.264 33.92V39.872Z" fill="white"/>
<path d="M136.505 39.872H135.713V32.784H141.561V39.872H140.769V33.464H136.497L136.505 39.872Z" fill="white"/>
<path d="M145.953 39.872V39.184C146.025 39.2 146.121 39.208 146.249 39.208C146.577 39.208 146.833 39.104 147.033 38.88C147.225 38.664 147.385 38.352 147.505 37.936C147.593 37.656 147.649 37.352 147.673 37.024C147.713 36.648 147.745 36.288 147.769 35.952C147.785 35.704 147.801 35.288 147.809 34.72L147.849 32.784H152.521V39.872H151.729V33.464H148.617L148.561 35.08C148.521 36.408 148.409 37.408 148.241 38.08C148.089 38.688 147.857 39.136 147.545 39.424C147.233 39.712 146.793 39.864 146.241 39.888C146.089 39.88 145.985 39.88 145.953 39.872Z" fill="white"/>
<path d="M163.104 39.872H157.832V32.784H162.952V33.464H158.624V35.728H162.176V36.408H158.624V39.192H163.112L163.104 39.872Z" fill="white"/>
<path d="M167.84 32.784H168.632V35.864L172.088 32.784H173.136L169.472 36.024L173.704 39.872H172.592L168.64 36.264V39.872H167.848V32.784H167.84Z" fill="white"/>
<path d="M181.033 39.992C179.945 39.992 179.033 39.648 178.297 38.96C177.569 38.272 177.209 37.392 177.209 36.328C177.209 35.272 177.569 34.392 178.297 33.704C179.025 33.008 179.945 32.664 181.033 32.664C181.841 32.664 182.537 32.84 183.121 33.192V33.96C182.465 33.56 181.777 33.36 181.041 33.36C180.185 33.36 179.465 33.64 178.881 34.208C178.297 34.76 178.009 35.464 178.009 36.328C178.009 37.192 178.297 37.904 178.881 38.456C179.473 39.016 180.201 39.296 181.065 39.296C181.929 39.296 182.673 39.056 183.281 38.584V39.368C182.665 39.784 181.921 39.992 181.033 39.992Z" fill="white"/>
<path d="M125.64 0.40802H117.52C116.632 0.40802 115.832 0.728014 115.136 1.35201C114.496 1.92801 114.152 2.67202 114.152 3.50402V3.68002H116.264V3.49601C116.264 3.20001 116.416 2.84801 116.64 2.64801C116.856 2.44801 117.072 2.34401 117.6 2.32001H117.608C117.608 2.32001 117.664 2.32001 117.752 2.32001V20.96H119.712V13.144H125.632C129.28 13.144 132.24 10.296 132.24 6.77601C132.248 3.25601 129.288 0.40802 125.64 0.40802ZM130.248 6.77601C130.248 9.23201 128.184 11.224 125.632 11.224H119.744V2.32802H125.632C128.184 2.32802 130.248 4.32001 130.248 6.77601Z" fill="white"/>
<path d="M72.856 2.29601V0.40802H59.536C58.648 0.40802 57.848 0.728014 57.152 1.35201C56.512 1.92801 56.168 2.67202 56.168 3.50402V3.68002H58.28V3.49601C58.28 3.19201 58.432 2.84801 58.656 2.64801C58.872 2.44801 59.088 2.34401 59.616 2.32001H59.624C59.632 2.32001 59.696 2.32001 59.776 2.32001V21.392H72.848V19.496H61.736V13.08H69.56V11.192H61.736V2.29601H72.856Z" fill="white"/>
<path d="M52.7366 12.088C54.5446 10.952 55.7446 8.99196 55.7446 6.75996C55.7446 3.24796 52.7926 0.399979 49.1446 0.399979H41.0086C40.1206 0.399979 39.3206 0.719973 38.6246 1.34397C37.9846 1.91997 37.6406 2.66397 37.6406 3.49597V3.67198H39.7526V3.49597C39.7526 3.19997 39.9046 2.84798 40.1286 2.64798C40.3446 2.44798 40.5606 2.34397 41.0886 2.31997H41.0966C41.0966 2.31997 41.1526 2.31997 41.2486 2.31997V21.192H43.2086V13.128H51.1606L54.8646 21.36L56.5606 20.416L52.7366 12.088ZM49.1446 11.192H43.2486V2.32798H49.1446C51.6886 2.32798 53.7446 4.31196 53.7446 6.75996C53.7446 9.20796 51.6886 11.192 49.1446 11.192Z" fill="white"/>
<path d="M162.703 12.088C164.511 10.952 165.711 8.99196 165.711 6.75996C165.711 3.24796 162.759 0.399979 159.111 0.399979H150.975C150.087 0.399979 149.287 0.719973 148.591 1.34397C147.951 1.91997 147.607 2.66397 147.607 3.49597V3.67198H149.719V3.49597C149.719 3.19997 149.871 2.84798 150.095 2.64798C150.311 2.44798 150.527 2.34397 151.055 2.31997H151.063C151.063 2.31997 151.119 2.31997 151.207 2.31997V11.232V21.192H153.167V13.128H161.119L164.823 21.36L166.519 20.416L162.703 12.088ZM159.119 11.192H153.223V2.32798H159.119C161.663 2.32798 163.719 4.31196 163.719 6.75996C163.719 9.20796 161.655 11.192 159.119 11.192Z" fill="white"/>
<path d="M16.688 2.35201V0.40802H3.368C2.48 0.40802 1.68 0.728014 0.984 1.35201C0.344 1.92801 0 2.67202 0 3.50402V3.68002H2.112V3.49601C2.112 3.20001 2.264 2.84801 2.488 2.64801C2.704 2.44801 2.92 2.34401 3.448 2.32001H3.456C3.456 2.32001 3.512 2.32001 3.592 2.32001V21.32H5.624V11.304H13.392V9.25602H5.624V2.36H16.688V2.35201Z" fill="white"/>
</svg>
