<svg width="55" height="73" viewBox="0 0 55 73" fill="none" xmlns="http://www.w3.org/2000/svg">
    <path d="M52.79 27.4082C53.5191 27.4082 54.1124 26.7451 54.1124 25.9303V22.1777C54.1124 21.3629 53.5191 20.6998 52.79 20.6998H51.7425V9.17163C51.7425 8.12366 50.9799 7.27143 50.0422 7.27143H37.1322C36.6107 7.27143 36.1876 7.74428 36.1876 8.3271C36.1876 8.90991 36.6107 9.38276 37.1322 9.38276H49.8532V20.6998H48.2351V16.3556C48.2351 15.4633 47.5851 14.737 46.7866 14.737H40.7656C39.9671 14.737 39.3172 15.4633 39.3172 16.3556V20.6998H38.0788C37.3492 20.6998 36.7564 21.3629 36.7564 22.1777V25.9303C36.7564 26.7451 37.3492 27.4082 38.0788 27.4082H49.8532V39.1794H48.2351V34.8353C48.2351 33.9423 47.5851 33.2166 46.7866 33.2166H40.7656C39.9671 33.2166 39.3172 33.9423 39.3172 34.8353V39.1794H38.0788C37.3492 39.1794 36.7564 39.842 36.7564 40.6574V44.4094C36.7564 45.2247 37.3492 45.8873 38.0788 45.8873H49.8532V57.6585H48.2351V53.3143C48.2351 52.422 47.5851 51.6956 46.7866 51.6956H40.7656C39.9671 51.6956 39.3172 52.422 39.3172 53.3143V57.6585H38.0788C37.3492 57.6585 36.7564 58.3216 36.7564 59.1364V62.889C36.7564 63.7038 37.3492 64.3669 38.0788 64.3669H49.8532V69.9553H34.0878V59.8561C34.0878 59.2728 33.6652 58.8005 33.1432 58.8005C32.6216 58.8005 32.1985 59.2728 32.1985 59.8561V69.9553H21.9134V16.8384C21.9134 16.2556 21.4908 15.7827 20.9688 15.7827C20.4473 15.7827 20.0241 16.2556 20.0241 16.8384V69.9553H4.25919V64.3669H16.0336C16.7632 64.3669 17.3561 63.7038 17.3561 62.889V59.1364C17.3561 58.3216 16.7632 57.6585 16.0336 57.6585H14.7952V53.3143C14.7952 52.422 14.1453 51.6956 13.3468 51.6956H7.32579C6.52679 51.6956 5.87736 52.422 5.87736 53.3143V57.6585H4.25919V45.8878H16.0336C16.7632 45.8878 17.3561 45.2247 17.3561 44.4099V40.6574C17.3561 39.842 16.7632 39.1794 16.0336 39.1794H14.7952V34.8353C14.7952 33.9423 14.1453 33.2166 13.3468 33.2166H7.32579C6.52679 33.2166 5.87736 33.9423 5.87736 34.8353V39.1794H4.25919V27.4082H16.0336C16.7632 27.4082 17.3561 26.7451 17.3561 25.9303V22.1777C17.3561 21.3629 16.7632 20.6998 16.0336 20.6998H14.7952V16.3556C14.7952 15.4633 14.1453 14.737 13.3468 14.737H7.32579C6.52679 14.737 5.87736 15.4633 5.87736 16.3556V20.6998H4.25919V9.38276H20.0241V12.6157C20.0241 13.1991 20.4473 13.6714 20.9688 13.6714C21.4908 13.6714 21.9134 13.1991 21.9134 12.6157V2.11133H32.1985V55.6335C32.1985 56.2163 32.6216 56.6891 33.1432 56.6891C33.6647 56.6891 34.0878 56.2163 34.0878 55.6335V1.61868C34.0878 0.726319 33.4379 0 32.6394 0H21.4726C20.6741 0 20.0241 0.726319 20.0241 1.61868V7.27143H4.07026C3.13252 7.27143 2.36993 8.12366 2.36993 9.17163V20.6998H1.32248C0.593345 20.6998 0 21.3629 0 22.1777V25.9303C0 26.7451 0.593345 27.4082 1.32248 27.4082H2.36993V39.1794H1.32248C0.593345 39.1794 0 39.842 0 40.6574V44.4094C0 45.2247 0.593345 45.8873 1.32248 45.8873H2.36993V57.6585H1.32248C0.593345 57.6585 0 58.3216 0 59.1364V62.889C0 63.7038 0.593345 64.3669 1.32248 64.3669H2.36993V70.1665C2.36993 71.2144 3.13252 72.0667 4.07026 72.0667H50.0422C50.9799 72.0667 51.7425 71.2144 51.7425 70.1665V64.3669H52.79C53.5191 64.3669 54.1124 63.7038 54.1124 62.889V59.1364C54.1124 58.3216 53.5191 57.6585 52.79 57.6585H51.7425V45.8878H52.79C53.5191 45.8878 54.1124 45.2247 54.1124 44.4099V40.6574C54.1124 39.842 53.5191 39.1794 52.79 39.1794H51.7425V27.4082H52.79ZM7.76661 16.8483H12.906V20.6998H7.76661V16.8483ZM1.88926 22.8111H15.4668V25.2969C13.2169 25.2969 3.39574 25.2969 1.88926 25.2969V22.8111ZM7.76661 35.3279H12.906V39.1794H7.76661V35.3279ZM1.88926 41.2908H15.4668V43.776H1.88926V41.2908ZM7.76661 53.807H12.906V57.6585H7.76661V53.807ZM1.88926 59.7698H15.4668V62.2556H1.88926V59.7698ZM41.2064 53.807H46.3458V57.6585H41.2064V53.807ZM52.2232 62.2556H38.6451V59.7698H52.2232V62.2556ZM41.2064 35.3279H46.3458V39.1794H41.2064V35.3279ZM52.2232 43.776H38.6451V41.2908H52.2232V43.776ZM41.2064 16.8483H46.3458V20.6998H41.2064V16.8483ZM38.6451 22.8111H52.2232V25.2969C50.5037 25.2969 41.4795 25.2969 38.6451 25.2969V22.8111Z"
          fill="white"/>
</svg>
