<svg width="66" height="69" viewBox="0 0 66 69" fill="none" xmlns="http://www.w3.org/2000/svg">
    <path d="M65.0417 15.7968C64.8877 15.0261 64.3689 14.4234 63.6873 14.2241L29.0521 4.09153C28.5644 3.94842 28.0657 4.27651 27.9386 4.82342C27.8113 5.37033 28.1035 5.92932 28.5913 6.07202L63.2265 16.2046C63.2414 16.209 63.2542 16.2126 63.2603 16.2438C63.2665 16.275 63.2565 16.2844 63.2447 16.2955L61.4521 17.9736C60.6211 18.7514 59.6285 19.2525 58.5872 19.4511C58.537 19.4607 58.4864 19.4684 58.4359 19.4764C58.3809 19.4853 58.326 19.4938 58.2708 19.501C58.2106 19.5087 58.1503 19.5155 58.09 19.5212C58.049 19.5251 58.008 19.5284 57.9671 19.5313C57.8949 19.5365 57.8228 19.5413 57.7505 19.5435C57.7335 19.5441 57.7163 19.544 57.6993 19.5444C57.2198 19.5549 56.7384 19.5027 56.2692 19.3864C56.2671 19.3858 56.2649 19.3857 56.2628 19.3851C56.1941 19.368 56.1253 19.3521 56.0569 19.3323C56.054 19.3315 56.051 19.3308 56.0481 19.3299L47.7058 16.8895C45.4928 16.242 43.1887 16.7176 41.3497 18.1565C41.3414 18.1629 41.3331 18.1694 41.3249 18.1758C41.1419 18.3202 40.9636 18.474 40.7905 18.6375C40.7705 18.6565 40.7504 18.6754 40.7305 18.6947C40.6488 18.7733 40.5681 18.8532 40.4888 18.9361C40.4876 18.9372 40.4865 18.9383 40.4854 18.9396C40.4844 18.9407 40.4832 18.9417 40.4822 18.9427C40.4006 19.0281 40.3167 19.1096 40.2317 19.1889C40.2038 19.215 40.1755 19.2403 40.147 19.2657C40.0865 19.3202 40.0252 19.3732 39.963 19.4247C39.931 19.4513 39.8993 19.4782 39.8667 19.5041C39.7936 19.5624 39.7192 19.6183 39.644 19.6726C39.5943 19.7084 39.5438 19.7427 39.4932 19.7768C39.4413 19.8119 39.3894 19.8466 39.3367 19.8798C39.2838 19.9131 39.2301 19.9451 39.1763 19.9764C39.1396 19.9979 39.1026 20.0185 39.0656 20.0392C39.0035 20.0735 38.9417 20.1076 38.8787 20.1393C38.8757 20.1409 38.8727 20.1421 38.8696 20.1437C38.6225 20.2678 38.3679 20.3728 38.1074 20.4575C38.1048 20.4583 38.1022 20.4591 38.0997 20.46C37.5722 20.6306 37.0212 20.7192 36.4603 20.7192C35.9588 20.7192 35.4581 20.6472 34.972 20.5049L12.5989 13.9598C12.5985 13.9597 12.5982 13.9597 12.5978 13.9595L11.7135 13.7008C11.4246 13.6163 11.1825 13.4108 11.0315 13.122C10.8805 12.8333 10.8389 12.4959 10.9143 12.172L12.9307 3.5067C13.048 3.00249 13.3335 2.57973 13.7344 2.31625C14.1356 2.05276 14.6041 1.98043 15.0534 2.11161L24.3435 4.82946C24.8312 4.97244 25.3299 4.64463 25.457 4.09757C25.5843 3.55066 25.2921 2.99167 24.8043 2.84897L15.5142 0.13127C14.5927 -0.138534 13.6328 0.0106235 12.8112 0.550513C11.9897 1.09054 11.4048 1.95684 11.1644 2.99013L9.148 11.6552C8.73828 13.4157 9.68249 15.2218 11.2526 15.6812L11.255 15.6819L10.1402 20.4726C9.91673 21.4327 10.0401 22.4329 10.4877 23.2889C10.9351 24.145 11.6532 24.7544 12.5094 25.0048L21.3455 27.5898C21.0717 29.5117 22.1424 31.3951 23.8558 31.8962L24.0748 31.9603L18.5308 44.1822C14.4294 45.9075 10.3414 47.6212 7.51549 48.7742V43.9577C7.51549 41.9654 6.06986 40.3444 4.29292 40.3444H1.86687C1.3627 40.3444 0.954102 40.8026 0.954102 41.3679V67.0395C0.954102 67.6046 1.3627 68.0629 1.86687 68.0629H4.29292C6.06986 68.0629 7.51549 66.442 7.51549 64.4497V55.9118C8.57293 55.4915 10.4739 54.7039 13.9098 53.264C14.3819 53.0661 14.6216 52.4765 14.4451 51.9471C14.2688 51.4178 13.7432 51.1491 13.2706 51.3467C10.4204 52.5413 8.63419 53.2837 7.51536 53.7375V50.9518C10.4229 49.7731 14.9769 47.8636 19.504 45.9589C19.7176 45.869 19.8935 45.6928 19.9969 45.4647L25.8829 32.4894L28.4073 33.2279L21.7348 47.3862C21.7302 47.3959 21.7256 47.4058 21.7214 47.4158C21.5911 47.7153 21.3663 47.9446 21.0883 48.0616C19.7311 48.6328 18.4983 49.1514 17.3779 49.6224C16.9058 49.8207 16.6668 50.4106 16.8436 50.9398C17.0207 51.4691 17.5467 51.7372 18.0186 51.5389C19.1393 51.0678 20.3723 50.5491 21.7298 49.9778C22.4416 49.6782 23.0183 49.0931 23.3549 48.329L30.2217 33.7586L31.7319 34.2005C32.0148 34.2832 32.3054 34.3252 32.5957 34.3252C32.596 34.3252 32.5959 34.3252 32.5961 34.3252C34.0362 34.3252 35.308 33.3107 35.7975 31.8177L51.1969 36.3228C51.3815 36.3769 51.5715 36.4043 51.7616 36.4043C51.7617 36.4043 51.7616 36.4043 51.7618 36.4043C52.6132 36.4043 53.3737 35.8616 53.7487 35.0364C56.853 34.4066 59.5316 31.5031 60.4208 27.6813C60.9369 25.4645 60.807 23.145 60.0816 21.1344C60.9981 20.7898 61.862 20.2563 62.622 19.5448L64.4146 17.8667C64.9551 17.3607 65.1955 16.5676 65.0417 15.7968ZM5.69007 50.2325V55.1834V64.4497H5.68994C5.68994 65.3135 5.06314 66.0162 4.29279 66.0162H2.77952V42.3914H4.29292C5.06327 42.3914 5.69007 43.094 5.69007 43.9578V50.2325ZM32.596 32.2784C32.4608 32.2784 32.3253 32.2587 32.1928 32.22L24.3167 29.9158C23.5787 29.6999 23.0969 28.9336 23.1297 28.1118L31.7937 30.6464L34.0146 31.2961C33.7491 31.8888 33.2046 32.2784 32.596 32.2784ZM51.991 33.8707C51.9588 34.0092 51.9548 34.1512 51.9743 34.2885C51.9116 34.3318 51.839 34.3575 51.7616 34.3575C51.727 34.3575 51.692 34.3524 51.6577 34.3423L12.9702 23.0245C12.5858 22.912 12.2634 22.6384 12.0623 22.2539C11.8615 21.8695 11.806 21.4205 11.9062 20.9895L13.0211 16.1987L34.511 22.4855C35.1631 22.6764 35.8227 22.7697 36.4764 22.7697C38.2856 22.7697 40.0465 22.0542 41.457 20.7096C41.5501 20.6209 41.6415 20.5295 41.7313 20.4355C41.814 20.3489 41.8991 20.2664 41.9852 20.186C42.0132 20.16 42.0415 20.1347 42.0697 20.1093C42.1299 20.0549 42.191 20.0023 42.2529 19.9508C42.2854 19.9239 42.3177 19.8965 42.3506 19.8704C42.4219 19.8136 42.4943 19.7593 42.5675 19.7063C42.6206 19.668 42.6744 19.6312 42.7285 19.5948C42.7783 19.5612 42.828 19.528 42.8785 19.4962C42.9328 19.4621 42.9877 19.4292 43.0429 19.3972C43.0779 19.3768 43.1131 19.357 43.1484 19.3375C43.4582 19.166 43.7803 19.0244 44.1123 18.9166C44.1127 18.9164 44.1132 18.9163 44.1135 18.9162C44.642 18.7447 45.1943 18.6559 45.7565 18.6559C46.258 18.6559 46.7588 18.728 47.2448 18.8702L51.8276 20.2108L54.9566 21.1263L51.991 33.8707ZM58.6545 27.1648C58.0345 29.8294 56.3579 31.9323 54.3362 32.7496L56.9384 21.5664C57.3779 21.606 57.8176 21.6037 58.2534 21.5611C58.2556 21.561 58.2577 21.5608 58.2599 21.5607C58.9551 23.2385 59.1014 25.2438 58.6545 27.1648Z"
          fill="white"/>
</svg>
