<svg width="79" height="61" viewBox="0 0 79 61" fill="none" xmlns="http://www.w3.org/2000/svg">
    <path d="M78.029 43.6675L77.6735 43.1276C76.3338 41.0933 74.1053 39.6608 71.5595 39.1975L68.654 38.6687V25.1932H76.1731C77.7213 25.1932 78.9807 24.0407 78.9807 22.6242V2.56897C78.9807 1.15234 77.7212 0 76.1731 0H54.2552C52.707 0 51.4476 1.15248 51.4476 2.56897V10.1766C51.4476 10.7453 51.9514 11.2064 52.5731 11.2064C53.1947 11.2064 53.6985 10.7453 53.6985 10.1766V2.56897C53.6985 2.28802 53.9483 2.05944 54.2554 2.05944H76.1734C76.4805 2.05944 76.7303 2.28802 76.7303 2.56897V22.6244C76.7303 22.9053 76.4805 23.1339 76.1734 23.1339H54.2552C53.9481 23.1339 53.6983 22.9053 53.6983 22.6244V16.8713C53.6983 16.3026 53.1946 15.8415 52.5729 15.8415C51.9512 15.8415 51.4475 16.3026 51.4475 16.8713V22.6244C51.4475 24.041 52.707 25.1933 54.255 25.1933H62.7816V37.6004L61.288 37.3286C59.2266 36.9535 57.2169 35.8151 55.8844 34.9913L48.4405 30.39C45.6084 28.6395 42.3051 27.7142 38.8874 27.7142H25.2245C20.6782 27.7142 16.4006 29.3311 13.18 32.2671C11.142 34.1249 8.57671 35.392 5.76127 35.9316L4.14548 36.2412C1.74339 36.7015 0 38.6656 0 40.9113V50.8845C0 52.0741 0.767624 53.1551 1.95586 53.6383L6.43847 55.4612C6.70957 56.7583 7.39249 57.9969 8.48768 58.999C9.94316 60.3308 11.855 60.9967 13.7671 60.9967C15.6791 60.9967 17.5909 60.3308 19.0465 58.999C19.9826 58.1424 20.6158 57.1128 20.9499 56.0219H58.326C58.66 57.1128 59.2934 58.1424 60.2295 58.999C61.6398 60.2893 63.5145 61 65.5089 61C67.5032 61 69.3782 60.2894 70.7885 58.999C71.7246 58.1424 72.3578 57.1128 72.6919 56.0219H74.8269C77.1279 56.0219 79 54.3089 79 52.2034V46.8622C78.9997 45.7364 78.6639 44.6318 78.029 43.6675ZM65.0325 25.1932H66.4033V38.2592L65.0325 38.0097V25.1932ZM17.4548 57.5428C16.4697 58.4442 15.1601 58.9406 13.7669 58.9406C12.3738 58.9406 11.0641 58.4442 10.0791 57.5428C8.49895 56.097 8.14746 53.9469 9.02294 52.1869C9.03004 52.1728 9.03682 52.1585 9.04392 52.1444C9.07061 52.0922 9.09885 52.0405 9.1277 51.9891C9.14128 51.9648 9.15486 51.9407 9.16905 51.9167C9.19513 51.8721 9.22229 51.8277 9.25006 51.7837C9.26919 51.7533 9.28879 51.7233 9.30869 51.6933C9.33446 51.6545 9.36054 51.6158 9.38769 51.5776C9.41223 51.543 9.43753 51.5088 9.46314 51.4748C9.48845 51.441 9.5136 51.4072 9.53983 51.374C9.56992 51.336 9.60124 51.2987 9.63272 51.2614C9.65725 51.2324 9.68116 51.203 9.70647 51.1743C9.7435 51.1324 9.78223 51.0915 9.8208 51.0505C9.84287 51.0272 9.86401 51.0034 9.88653 50.9804C9.94393 50.922 10.003 50.8649 10.0638 50.8088C10.0691 50.804 10.0738 50.7989 10.0791 50.7941C10.0907 50.7835 10.1029 50.7737 10.1146 50.7632C10.1661 50.7169 10.218 50.6712 10.2709 50.6273C10.2846 50.6158 10.2991 50.6052 10.313 50.5939C10.3658 50.5512 10.4189 50.5087 10.4732 50.4681C10.4783 50.4643 10.4837 50.4608 10.4888 50.457C12.3963 49.0444 15.1476 49.0461 17.0528 50.4626C17.055 50.4643 17.0573 50.4657 17.0596 50.4674C17.1178 50.5108 17.1747 50.5562 17.2313 50.6023C17.2415 50.6105 17.252 50.6182 17.262 50.6265C17.3275 50.6806 17.3917 50.7364 17.4546 50.794C17.5225 50.8561 17.5879 50.9201 17.6515 50.9849C17.6794 51.0134 17.7058 51.0426 17.7328 51.0716C17.7658 51.1069 17.799 51.1423 17.8308 51.1783C17.8664 51.2188 17.9008 51.26 17.9348 51.3013C17.9539 51.3243 17.9729 51.3474 17.9914 51.3707C18.0326 51.4227 18.0727 51.4752 18.1115 51.5284C18.1181 51.5375 18.1246 51.5466 18.131 51.5557C19.4549 53.4059 19.2296 55.9187 17.4548 57.5428ZM69.1966 57.5428C68.2114 58.4442 66.9018 58.9406 65.5086 58.9406C64.1155 58.9406 62.806 58.4442 61.821 57.5428C60.0458 55.9187 59.8205 53.4055 61.1445 51.5554C61.1508 51.5465 61.1572 51.5376 61.1637 51.5288C61.2024 51.4755 61.2427 51.4228 61.284 51.3706C61.3024 51.3474 61.3212 51.3246 61.3402 51.3018C61.3743 51.2603 61.4088 51.2189 61.4448 51.1781C61.4764 51.1424 61.5091 51.1074 61.542 51.0724C61.5693 51.0432 61.596 51.0135 61.6242 50.9849C61.6878 50.9201 61.7532 50.8562 61.8211 50.7941C62.8061 49.8928 64.1157 49.3964 65.5088 49.3964C66.9019 49.3964 68.2116 49.8928 69.1966 50.7941C69.2645 50.8562 69.3299 50.9202 69.3935 50.985C69.4216 51.0135 69.448 51.0429 69.4751 51.072C69.5081 51.1071 69.5412 51.1424 69.5728 51.1783C69.6086 51.2189 69.643 51.2602 69.6771 51.3015C69.6961 51.3246 69.7151 51.3476 69.7336 51.3709C69.7748 51.423 69.815 51.4753 69.8536 51.5286C69.8603 51.5376 69.8667 51.5466 69.8732 51.5557C71.1968 53.4057 70.9715 55.9188 69.1966 57.5428ZM76.7493 52.2034H76.749C76.749 53.1734 75.8866 53.9624 74.8266 53.9624H72.9738C72.9297 52.4688 72.3535 51.0439 71.3167 49.8756C71.3097 49.8677 71.3031 49.8595 71.296 49.8516C71.2318 49.78 71.1653 49.7098 71.0977 49.6401C71.0804 49.6223 71.0641 49.604 71.0466 49.5862C70.975 49.514 70.901 49.4433 70.8257 49.3735C70.8129 49.3617 70.8012 49.3493 70.7882 49.3375C69.8186 48.4505 68.6294 47.8373 67.3329 47.5408C66.7435 47.406 66.132 47.3367 65.5086 47.3367C65.0101 47.3367 64.519 47.3812 64.0407 47.4678C62.6059 47.7282 61.2869 48.3699 60.2292 49.3375C60.2166 49.3491 60.205 49.3613 60.1925 49.373C60.1169 49.4431 60.0425 49.514 59.9708 49.5864C59.9538 49.6035 59.9381 49.6213 59.9214 49.6385C59.8532 49.7089 59.7859 49.7797 59.7213 49.852C59.7148 49.8592 59.7088 49.8667 59.7023 49.874C58.6647 51.0425 58.0879 52.4683 58.0436 53.9626H21.2319C21.1877 52.4664 20.6097 51.0389 19.5694 49.8695C19.5646 49.864 19.56 49.8585 19.5552 49.853C19.4873 49.777 19.4168 49.7026 19.345 49.6289C19.3318 49.6154 19.3194 49.6014 19.306 49.5879C19.2219 49.503 19.1355 49.4194 19.0462 49.3377C18.6823 49.0048 18.2898 48.7134 17.8761 48.4636C16.6347 47.7145 15.2008 47.3399 13.7669 47.3399C11.855 47.3399 9.94301 48.0059 8.48753 49.3377C8.40436 49.4138 8.32397 49.4919 8.24528 49.5709C8.22198 49.5943 8.19961 49.6182 8.17662 49.6418C8.12108 49.6993 8.06645 49.7573 8.01322 49.816C7.98961 49.8421 7.96601 49.8684 7.94286 49.8949C7.88778 49.9578 7.83408 50.0213 7.78162 50.0855C7.76527 50.1056 7.74845 50.1252 7.73256 50.1454C7.59153 50.322 7.46069 50.5041 7.33972 50.6909C7.33632 50.6961 7.33308 50.7015 7.32969 50.7067C7.27059 50.7986 7.21397 50.8918 7.15981 50.986C7.15827 50.9887 7.15672 50.9915 7.15503 50.9942C6.76265 51.6774 6.4988 52.4163 6.37784 53.1828L2.87022 51.7563C2.49404 51.6032 2.25103 51.261 2.25103 50.8845V40.9113C2.25103 39.6348 3.24207 38.5185 4.60744 38.2568L6.22323 37.9471C9.46654 37.3255 12.4216 35.8658 14.7691 33.7259C17.5649 31.1771 21.2782 29.7735 25.225 29.7735H38.8879C41.8549 29.7735 44.7225 30.5768 47.181 32.0964L54.6249 36.6977C56.1186 37.6211 58.3891 38.9006 60.8494 39.3484L71.1209 41.2174C73.0468 41.5679 74.7325 42.6515 75.746 44.1904L76.1015 44.7303C76.5254 45.3737 76.7493 46.1109 76.7493 46.8622V52.2034Z"
          fill="white"/>
</svg>
