<svg width="67" height="44" viewBox="0 0 67 44" fill="none" xmlns="http://www.w3.org/2000/svg">
    <path d="M65.9282 6.25438C65.6996 5.88119 65.3186 5.65772 64.9089 5.65772H63.5162C63.7625 5.1276 63.9012 4.52817 63.9012 3.89381C63.9012 1.74672 62.3118 0 60.3585 0C58.4047 0 56.8153 1.74672 56.8153 3.89381C56.8153 4.52817 56.954 5.1276 57.2003 5.65772H55.3429C54.9079 5.65772 54.5017 5.91391 54.2827 6.32647C54.0633 6.73903 54.0592 7.25362 54.2727 7.67006L55.8722 10.7898C56.0528 11.1419 56.3677 11.3831 56.7229 11.4541V14.8377C55.133 14.7801 53.8256 14.5793 52.7231 14.2721C52.6726 14.2522 52.6206 14.2372 52.5666 14.2272C49.6986 13.3866 48.2373 11.8095 46.7184 10.1704C44.6199 7.90573 42.4537 5.56789 36.9057 5.33056C36.7427 4.14667 35.8107 3.23671 34.6885 3.23671H31.4491C30.3268 3.23671 29.3949 4.14667 29.2319 5.33056C23.6839 5.56789 21.5177 7.90573 19.4191 10.1704C17.9003 11.8095 16.439 13.3866 13.5709 14.2272C13.5174 14.2372 13.465 14.2522 13.4145 14.2721C12.312 14.5793 11.0046 14.7801 9.41463 14.8377V11.4541C9.76986 11.3831 10.0847 11.1419 10.2659 10.7887L11.8649 7.67006C12.0778 7.25362 12.0743 6.73903 11.8548 6.32647C11.6358 5.91391 11.2296 5.65772 10.7947 5.65772H8.93728C9.18352 5.12816 9.32228 4.52817 9.32228 3.89381C9.32228 1.74672 7.73283 0 5.77906 0C3.82579 0 2.23583 1.74672 2.23583 3.89381C2.23583 4.52817 2.37509 5.1276 2.62083 5.65772H1.22866C0.818938 5.65772 0.437972 5.88064 0.209393 6.25438C-0.0191861 6.62812 -0.06359 7.10002 0.0908145 7.51701L1.24784 10.6362C1.40628 11.0626 1.74436 11.3626 2.14349 11.4496V17.5205C2.14349 18.1083 2.57743 18.5851 3.1123 18.5851C3.64767 18.5851 4.08111 18.1083 4.08111 17.5205V11.4763H7.477V40.9099H4.08111V21.7958C4.08111 21.208 3.64767 20.7311 3.1123 20.7311C2.57743 20.7311 2.14349 21.208 2.14349 21.7958V41.6901C2.14349 42.4343 2.6945 43.0398 3.37166 43.0398H8.44581H8.45086H57.6867H57.6918H62.7659C63.4431 43.0398 63.9941 42.4343 63.9941 41.6901V18.0567C63.9941 17.4689 63.5606 16.992 63.0253 16.992C62.4899 16.992 62.0565 17.4689 62.0565 18.0567V40.9105H58.6606V11.4763H62.0565V13.8318C62.0565 14.4196 62.4899 14.8965 63.0253 14.8965C63.5606 14.8965 63.9941 14.4196 63.9941 13.8318V11.4502C64.3932 11.3626 64.7313 11.0626 64.8897 10.6362L66.0468 7.51701C66.2012 7.10002 66.1568 6.62812 65.9282 6.25438ZM58.7529 3.89381C58.7529 2.92063 59.473 2.12934 60.3585 2.12934C61.2436 2.12934 61.9641 2.92063 61.9641 3.89381C61.9641 4.86643 61.2436 5.65772 60.3585 5.65772C59.473 5.65772 58.7529 4.86643 58.7529 3.89381ZM56.7229 34.0079H53.3699V16.5944C54.3559 16.7929 55.465 16.9233 56.7229 16.9671V34.0079ZM47.7957 34.0079V14.0586C48.7661 14.8388 49.9251 15.5469 51.4323 16.071V34.0079H47.7957ZM45.8581 12.2232V34.0079H42.2215V8.88666C43.4659 9.64469 44.3827 10.6339 45.3611 11.6897C45.5246 11.8666 45.6896 12.0446 45.8581 12.2232ZM36.9309 7.46267C38.262 7.52533 39.3555 7.7183 40.2834 8.01219V34.0079H36.9309V7.46267ZM29.2067 34.0079H25.8537V8.01219C26.7821 7.7183 27.875 7.52533 29.2067 7.46267V34.0079ZM23.916 8.88666V34.0079H20.2795V12.2232C20.448 12.0446 20.613 11.8666 20.7765 11.6897C21.7549 10.6339 22.6717 9.64469 23.916 8.88666ZM14.7052 34.0079V16.071C16.213 15.5469 17.3715 14.8394 18.3418 14.0586V34.0079H14.7052ZM12.7676 16.5944V34.0079H9.41463V16.9671C10.6726 16.9233 11.7812 16.7929 12.7676 16.5944ZM4.17345 3.89381C4.17345 2.92063 4.894 2.12934 5.77906 2.12934C6.66461 2.12934 7.38466 2.92063 7.38466 3.89381C7.38466 4.86643 6.66461 5.65772 5.77906 5.65772C4.894 5.65772 4.17345 4.86643 4.17345 3.89381ZM2.86202 9.34691L2.28376 7.78706H9.58064L8.78136 9.34691H2.86202ZM9.41463 36.1372H29.2067V40.9099H9.41463V36.1372ZM31.1443 5.70042C31.1443 5.51576 31.281 5.36605 31.4485 5.36605H32.108V13.7814C32.108 14.3697 32.5415 14.846 33.0769 14.846C33.6122 14.846 34.0457 14.3697 34.0457 13.7814V5.36605H34.6885C34.8565 5.36605 34.9933 5.51576 34.9933 5.70042V40.9099H34.0457V18.0567C34.0457 17.4689 33.6122 16.992 33.0769 16.992C32.5415 16.992 32.108 17.4689 32.108 18.0567V40.9099H31.1443V5.70042ZM56.7229 40.9099H36.9309V36.1372H56.7229V40.9099ZM57.3562 9.34691L56.5569 7.78706H63.8538L63.2756 9.34691H57.3562Z"
          fill="white"/>
</svg>
