<svg width="58" height="63" viewBox="0 0 58 63" fill="none" xmlns="http://www.w3.org/2000/svg">
<path d="M55.9855 17.696H44.6326L42.6649 1.05487C42.5934 0.451681 42.1284 0 41.5783 0C40.4279 0 17.6104 0 16.4681 0C15.9179 0 15.4526 0.451681 15.3815 1.05487L13.4138 17.696H2.06087C1.45549 17.696 0.964844 18.2386 0.964844 18.9081V38.301C0.964844 38.9705 1.45549 39.5131 2.06087 39.5131C2.66626 39.5131 3.1569 38.9705 3.1569 38.301V27.3925H12.2274L8.20848 60.6848C8.16653 61.0314 8.262 61.3808 8.47008 61.6436C8.67815 61.9068 8.9787 62.0574 9.29467 62.0574H48.7517C49.0677 62.0574 49.3682 61.9068 49.5763 61.6436C49.7844 61.3808 49.8799 61.0314 49.8379 60.6848L45.819 27.3925H54.8895V38.301C54.8895 38.9705 55.3801 39.5131 55.9855 39.5131C56.5909 39.5131 57.0815 38.9705 57.0815 38.301V18.9081C57.0815 18.2386 56.5909 17.696 55.9855 17.696ZM42.4217 17.696H38.0564L36.2506 2.42412H40.6163L42.4217 17.696ZM29.0232 12.8478C28.4178 12.8478 27.9272 13.3904 27.9272 14.0599V17.696H22.2008L24.0063 2.42412H27.9272V6.78753C27.9272 7.457 28.4178 7.99958 29.0232 7.99958C29.6286 7.99958 30.1192 7.457 30.1192 6.78753V2.42412H34.0401L35.8455 17.696H30.1192V14.0599C30.1192 13.3904 29.6286 12.8478 29.0232 12.8478ZM17.4301 2.42412H21.7958L19.9899 17.696H15.6247L17.4301 2.42412ZM14.4387 27.3925H18.8036L14.9114 59.6333H10.547L14.4387 27.3925ZM47.4994 59.6333H43.135L39.2428 27.3925H43.6077L47.4994 59.6333ZM33.9553 24.9684C33.3499 24.9684 32.8593 25.511 32.8593 26.1805C32.8593 26.8499 33.3499 27.3925 33.9553 27.3925H37.0315L40.9237 59.6333H30.1192V47.9975C30.1192 47.328 29.6286 46.7854 29.0232 46.7854C28.4178 46.7854 27.9272 47.328 27.9272 47.9975V59.6333H17.1231L21.0149 27.3925H24.0911C24.6964 27.3925 25.1871 26.8499 25.1871 26.1805C25.1871 25.511 24.6964 24.9684 24.0911 24.9684H3.1569V20.1202H54.8895V24.9684H33.9553Z" fill="white"/>
</svg>
