<svg width="67" height="61" viewBox="0 0 67 61" fill="none" xmlns="http://www.w3.org/2000/svg">
<path d="M65.0946 57.9401H61.9602C61.4501 54.2041 58.9034 51.2491 55.6052 50.4262V48.8156H64.7701C65.2867 48.8156 65.7355 48.5512 65.9703 48.1082C66.2053 47.6652 66.192 47.1089 65.9349 46.6199L61.767 38.689H62.1935C62.7101 38.689 63.1588 38.4245 63.3937 37.9816C63.6286 37.5386 63.6153 36.9822 63.3583 36.4931L61.907 33.7318C61.6406 33.2251 61.0486 33.0503 60.5845 33.3409C60.1205 33.6315 59.9601 34.2781 60.2263 34.7847L61.1664 36.5735H60.7399C60.2233 36.5735 59.7748 36.838 59.5398 37.2808C59.3049 37.7236 59.3181 38.28 59.5751 38.7694L61.1706 41.8052C61.0707 41.8815 60.9724 41.9603 60.8772 42.0434C59.8238 41.1284 58.5077 40.6183 57.1455 40.6183C55.7829 40.6183 54.4666 41.1287 53.4131 42.0441C53.3258 41.9682 53.236 41.8961 53.1452 41.826L51.4968 38.6893H51.9232C52.4397 38.6893 52.8885 38.4248 53.1233 37.9819C53.3583 37.5389 53.345 36.9825 53.0879 36.4936L48.7814 28.2989H49.3465C49.8631 28.2989 50.3118 28.0345 50.5467 27.5915C50.7817 27.1485 50.7683 26.5922 50.5113 26.1032L48.6001 22.4666L52.6183 14.8208L58.5899 26.1836H58.0249C57.5084 26.1836 57.0598 26.4479 56.8248 26.8909C56.5899 27.3337 56.6031 27.89 56.8601 28.3794L58.0773 30.6956C58.3436 31.2023 58.9358 31.3773 59.3998 31.0866C59.8639 30.796 60.0244 30.1495 59.758 29.6428L59.0518 28.299H59.6168C60.1334 28.299 60.5822 28.0346 60.817 27.5916C61.052 27.1487 61.0387 26.5923 60.7816 26.1033L53.7801 12.7808C53.5222 12.2902 53.0881 11.9971 52.6185 11.997C52.6184 11.997 52.6184 11.997 52.6184 11.997C52.1488 11.997 51.7146 12.2899 51.4565 12.7807L47.4832 20.3413L43.5099 12.7808C43.252 12.29 42.8178 11.997 42.3481 11.997C41.8785 11.997 41.4442 12.2899 41.1863 12.7807L37.6123 19.5817L35.4869 15.5378H35.9007C36.4173 15.5378 36.866 15.2734 37.1009 14.8304C37.3358 14.3874 37.3225 13.8309 37.0655 13.3421L30.4655 0.783843C30.2077 0.29306 29.7734 0 29.3037 0C28.8342 0 28.3999 0.292919 28.1419 0.783702L21.542 13.3423C21.2851 13.8314 21.2719 14.3879 21.5069 14.8307C21.7418 15.2735 22.1905 15.538 22.7069 15.538H23.1205L21.434 18.7471L16.8356 9.99746C16.5778 9.50682 16.1436 9.21376 15.6741 9.21362C15.674 9.21362 15.674 9.21362 15.674 9.21362C15.2044 9.21362 14.7701 9.50654 14.512 9.99732L6.90337 24.4742C6.64644 24.9633 6.63326 25.5198 6.86823 25.9626C7.1032 26.4054 7.55183 26.6699 8.06827 26.6699H8.86218L4.12197 35.6894C3.86504 36.1785 3.85187 36.735 4.08671 37.1778C4.32168 37.6207 4.7703 37.8851 5.28674 37.8851H5.9312L4.20697 41.1659C4.20645 41.167 4.20581 41.1681 4.20529 41.1691L1.34058 46.6199C1.08365 47.109 1.07047 47.6655 1.30531 48.1084C1.54028 48.5512 1.98891 48.8156 2.50535 48.8156H12.6863V51.6641C11.6724 51.1354 10.5484 50.8449 9.38443 50.8449C5.54535 50.8449 2.36946 53.8885 1.78223 57.9401H0.968812C0.43377 57.9401 0 58.4137 0 58.9978C0 59.582 0.43377 60.0556 0.968812 60.0556H2.65726H65.0945C65.6295 60.0556 66.0633 59.582 66.0633 58.9978C66.0633 58.4137 65.6297 57.9401 65.0946 57.9401ZM57.1456 42.7336C58.2919 42.7336 59.3899 43.2678 60.1582 44.199C60.3419 44.4217 60.6035 44.5489 60.8781 44.5489C61.1526 44.5489 61.4143 44.4217 61.598 44.199C61.7645 43.9972 61.9464 43.8151 62.141 43.6515L63.7432 46.7002H55.7013C55.6889 46.6735 55.6786 46.6463 55.6646 46.6199L54.2952 44.0143C55.0518 43.1976 56.0776 42.7336 57.1456 42.7336ZM51.6292 43.1919L53.4729 46.7002H32.2905V45.2325H43.2245C43.7411 45.2325 44.1899 44.968 44.4247 44.5251C44.654 44.0927 44.6451 43.5525 44.4056 43.0722C44.8926 42.8515 45.419 42.7336 45.9562 42.7336C47.1025 42.7336 48.2005 43.2678 48.9688 44.199C49.1525 44.4218 49.4142 44.5489 49.6887 44.5489C49.9632 44.5489 50.2249 44.4217 50.4086 44.199C50.7559 43.7782 51.1707 43.439 51.6292 43.1919ZM53.6676 48.8158V50.1962C52.9488 50.2027 52.2446 50.3115 51.5691 50.5121V48.8158H53.6676ZM49.6314 48.8158V51.387C48.5026 52.0901 47.5255 53.0788 46.7954 54.2876C46.3491 53.9155 45.857 53.6194 45.3349 53.4054V48.8158H49.6314ZM43.3971 48.8158V53.0082C43.3702 53.0077 43.3435 53.0063 43.3166 53.0063C42.608 53.0063 41.9281 53.1493 41.2988 53.4084V48.8158H43.3971ZM21.1111 40.7841C21.2948 41.0068 21.5565 41.134 21.831 41.134C22.1055 41.134 22.3672 41.0068 22.5509 40.7841C23.2732 39.9083 24.3054 39.4063 25.3833 39.4063C26.4611 39.4063 27.4933 39.9085 28.2157 40.7841C28.3994 41.0068 28.6611 41.134 28.9356 41.134C29.2101 41.134 29.4718 41.0068 29.6555 40.7841C30.3778 39.9083 31.4101 39.4063 32.4879 39.4063C33.5656 39.4063 34.598 39.9085 35.3203 40.7841C35.504 41.0068 35.7657 41.134 36.0402 41.134C36.3147 41.134 36.5764 41.0068 36.7601 40.7841C37.4824 39.9083 38.5147 39.4063 39.5925 39.4063C39.8248 39.4063 40.0563 39.4321 40.2849 39.4782L42.1973 43.117H16.4095L18.3585 39.4087C19.4032 39.4353 20.4071 39.9309 21.1111 40.7841ZM19.4058 37.4152L20.6875 34.9764H37.9193L39.146 37.3103C38.0119 37.4074 36.9302 37.8706 36.0403 38.6336C35.0343 37.7709 33.783 37.2905 32.488 37.2905C31.193 37.2905 29.9417 37.7709 28.9357 38.6336C27.9297 37.7709 26.6784 37.2905 25.3834 37.2905C24.0884 37.2905 22.8371 37.7709 21.8311 38.6336C21.1213 38.025 20.289 37.6086 19.4058 37.4152ZM38.342 25.382C38.8585 25.382 39.3073 25.1175 39.5421 24.6746C39.7771 24.2316 39.7638 23.6751 39.5067 23.1863L38.7294 21.707L42.3479 14.8204L48.3196 26.183H47.7546C47.2381 26.183 46.7895 26.4473 46.5545 26.8903C46.3196 27.3331 46.3327 27.8895 46.5898 28.3789L50.8964 36.5735H50.47C49.9535 36.5735 49.5049 36.838 49.2699 37.2808C49.035 37.7236 49.0481 38.28 49.3052 38.7694L50.6636 41.3542C50.3193 41.5489 49.9923 41.7787 49.6884 42.0434C48.6349 41.1282 47.319 40.6181 45.9566 40.6181C45.0786 40.6181 44.2203 40.8314 43.4388 41.2272L40.1538 34.9764H40.7835C41.3001 34.9764 41.7488 34.7119 41.9837 34.269C42.2186 33.826 42.2053 33.2696 41.9483 32.7807L38.0599 25.3818H38.342V25.382ZM29.3036 2.82299L32.8553 9.58114C32.6536 9.70398 32.4595 9.84078 32.2746 9.99281C31.4026 9.2775 30.3333 8.8805 29.2278 8.8805C28.122 8.8805 27.0525 9.2775 26.1803 9.99337C26.0308 9.87053 25.8734 9.76025 25.7124 9.65617L29.3036 2.82299ZM24.749 11.4896C25.012 11.6629 25.2525 11.8768 25.4601 12.1284C25.6438 12.3511 25.9055 12.4783 26.1802 12.4783C26.4546 12.4783 26.7164 12.3511 26.9 12.1283C27.4936 11.4086 28.342 10.996 29.2278 10.996C30.1135 10.996 30.9618 11.4087 31.5555 12.1283C31.7392 12.3511 32.0009 12.4783 32.2754 12.4783C32.5499 12.4783 32.8116 12.3511 32.9953 12.1284C33.2336 11.8394 33.5129 11.6007 33.8199 11.4169L34.8735 13.4215H23.7336L24.749 11.4896ZM25.3541 15.5371H33.2527L35.3473 19.5228C35.2574 19.5869 35.1693 19.6543 35.0834 19.7248C34.2113 19.0088 33.1415 18.6117 32.0357 18.6117C30.9298 18.6117 29.8601 19.0088 28.988 19.7247C28.1158 19.009 27.0461 18.6117 25.9404 18.6117C25.008 18.6117 24.1019 18.895 23.3176 19.4126L25.3541 15.5371ZM22.0836 21.7605C22.1132 21.7936 22.1442 21.8252 22.1726 21.8596C22.3563 22.0824 22.618 22.2097 22.8925 22.2097C23.167 22.2097 23.4287 22.0824 23.6124 21.8596C24.206 21.1401 25.0544 20.7273 25.9401 20.7273C26.8259 20.7273 27.6742 21.1401 28.2679 21.8598C28.4516 22.0824 28.7133 22.2097 28.9878 22.2097C29.2623 22.2097 29.524 22.0824 29.7077 21.8596C30.3012 21.1401 31.1496 20.7273 32.0354 20.7273C32.9211 20.7273 33.7694 21.1401 34.3631 21.8596C34.5468 22.0824 34.8085 22.2097 35.083 22.2097C35.3576 22.2097 35.6192 22.0824 35.8029 21.8596C35.956 21.674 36.1286 21.5085 36.3146 21.3636L37.3144 23.2661H34.2318C33.6967 23.2661 33.2629 23.7397 33.2629 24.3238C33.2629 24.908 33.6967 25.3815 34.2318 25.3815H35.8254L37.1028 27.8122C36.6767 27.9955 36.2739 28.2391 35.9068 28.542C35.0279 27.8191 33.9492 27.418 32.8341 27.418C31.7187 27.418 30.6398 27.8194 29.7608 28.5427C28.8817 27.8194 27.8028 27.418 26.6874 27.418C25.572 27.418 24.4931 27.8194 23.6141 28.5427C23.0291 28.0613 22.3554 27.7235 21.6413 27.5512L22.7816 25.3815H29.7108C30.2458 25.3815 30.6796 24.908 30.6796 24.3238C30.6796 23.7397 30.2458 23.2661 29.7108 23.2661H21.2923L22.0836 21.7605ZM22.8941 30.6788C23.0778 30.9016 23.3395 31.0287 23.614 31.0287C23.8885 31.0287 24.1502 30.9015 24.3339 30.6788C24.934 29.9511 25.7919 29.5337 26.6873 29.5337C27.5827 29.5337 28.4405 29.9511 29.0407 30.6788C29.2244 30.9015 29.4861 31.0287 29.7606 31.0287C30.0352 31.0287 30.2968 30.9015 30.4805 30.6788C31.0807 29.9511 31.9385 29.5337 32.834 29.5337C33.7294 29.5337 34.5872 29.9511 35.1874 30.6788C35.3711 30.9015 35.6328 31.0287 35.9073 31.0287C36.1818 31.0287 36.4435 30.9015 36.6272 30.6788C37.0226 30.1994 37.5261 29.8557 38.0822 29.6766L39.7557 32.8609H18.8509L20.5985 29.5354C21.473 29.5531 22.307 29.9667 22.8941 30.6788ZM11.0538 26.7502C11.3109 26.2612 11.3243 25.7047 11.0893 25.2617C10.8544 24.8187 10.4057 24.5543 9.88912 24.5543H9.09521L15.6736 12.0369L20.3168 20.872L19.1006 23.1863C18.8437 23.6754 18.8305 24.2319 19.0653 24.6747C19.3003 25.1175 19.7489 25.382 20.2654 25.382H20.5476L16.6592 32.781C16.4023 33.2701 16.3891 33.8266 16.6239 34.2694C16.8589 34.7122 17.3075 34.9767 17.824 34.9767H18.4538L15.0221 41.5065C13.9689 40.7428 12.723 40.3221 11.4383 40.3221C9.93976 40.3221 8.49325 40.8929 7.34476 41.9149C7.0527 41.6548 6.74022 41.4233 6.41186 41.2223L8.1233 37.9659C8.38049 37.4768 8.39379 36.9203 8.15882 36.4774C7.92398 36.0344 7.47523 35.7699 6.95866 35.7699H6.31407L11.0538 26.7502ZM3.75085 57.9401C4.31121 55.074 6.61867 52.9605 9.38469 52.9605C11.6463 52.9605 13.7096 54.4242 14.6412 56.6896C14.779 57.0248 15.0665 57.2579 15.4002 57.3053C15.7339 57.353 16.0664 57.2076 16.2781 56.9219C16.931 56.041 17.8973 55.5358 18.9292 55.5358C20.3745 55.5358 21.6232 56.529 22.1182 57.94H3.75085V57.9401ZM14.6242 53.1045V48.8158H14.6243H16.7227V53.9408C16.3849 54.1083 16.0629 54.3135 15.7624 54.5557C15.4323 54.022 15.0493 53.5366 14.6242 53.1045ZM26.3167 57.9401H24.1396C23.8768 56.7171 23.2666 55.645 22.431 54.8524C23.6109 54.2501 24.9235 53.8165 26.3167 53.579V57.9401ZM26.3167 46.7003H25.0603C24.5253 46.7003 24.0915 47.1739 24.0915 47.758C24.0915 48.3422 24.5253 48.8158 25.0603 48.8158H26.3167V51.4437C24.1407 51.7761 22.1186 52.5381 20.3975 53.6462C19.93 53.4998 19.4377 53.4204 18.9293 53.4204C18.8393 53.4204 18.7496 53.4236 18.6604 53.4286V48.8158H20.5391C21.0741 48.8158 21.5079 48.3422 21.5079 47.758C21.5079 47.1739 21.0741 46.7003 20.5391 46.7003H3.53255L5.44653 43.0584C5.88612 43.3243 6.28604 43.6682 6.62448 44.0786C6.80817 44.3013 7.06988 44.4285 7.3445 44.4285C7.619 44.4285 7.88071 44.3013 8.06439 44.0786C8.92457 43.0355 10.1543 42.4374 11.4381 42.4374C12.3938 42.4374 13.3192 42.7695 14.085 43.3692C13.9689 43.7666 13.9992 44.1803 14.1823 44.5254C14.4172 44.9682 14.8658 45.2326 15.3823 45.2326H26.3164V46.7003H26.3167ZM30.3529 57.9401H28.2544V45.2326H30.3529V57.9401ZM37.6996 57.9401H32.2905V53.7869C34.5334 54.3364 36.518 55.4086 38.0086 56.8731C37.8777 57.2141 37.7745 57.5712 37.6996 57.9401ZM39.3612 54.7351C39.2565 54.8435 39.1563 54.9572 39.0593 55.074C37.2539 53.3982 34.9062 52.1984 32.2905 51.6287V48.8158H39.3612V54.7351ZM39.7084 57.9401C40.2287 56.2939 41.6566 55.1218 43.3166 55.1218C44.47 55.1218 45.5501 55.6863 46.2798 56.6707C46.4915 56.9564 46.8246 57.1018 47.1576 57.0542C47.4914 57.0068 47.7789 56.7737 47.9167 56.4384C48.9478 53.9308 51.2318 52.3103 53.7356 52.3103C56.8354 52.3103 59.4152 54.7074 59.9947 57.9403H39.7084V57.9401Z" fill="white"/>
</svg>
