<svg width="82" height="46" fill="none" xmlns="http://www.w3.org/2000/svg"><path d="M7.188 42.093H8.2v2.87a3.594 3.594 0 01-1.291.684 4.651 4.651 0 01-1.535.24 4.558 4.558 0 01-2.06-.479 3.795 3.795 0 01-1.43-1.333 3.59 3.59 0 01-.523-1.914c0-.717.174-1.367.523-1.914a3.546 3.546 0 011.43-1.333 4.45 4.45 0 012.06-.478c.593 0 1.151.103 1.64.273a3.54 3.54 0 011.256.855l-.663.65c-.593-.582-1.326-.855-2.164-.855-.558 0-1.081.136-1.535.376-.454.239-.802.58-1.047.99a2.95 2.95 0 00-.384 1.436c0 .547.14 1.026.384 1.436.245.444.628.752 1.047 1.025.454.24.977.376 1.535.376.663 0 1.257-.17 1.745-.478v-2.427zm16.854 3.691l-1.605-2.255c-.21 0-.35.034-.454.034h-1.85v2.221h-1.081v-7.348h2.931c.977 0 1.745.24 2.303.684.558.444.837 1.093.837 1.88 0 .58-.14 1.059-.418 1.435-.28.41-.698.683-1.222.854l1.78 2.461h-1.221v.034zm-.559-3.554c.35-.274.524-.684.524-1.23 0-.547-.175-.923-.524-1.231-.349-.273-.872-.41-1.535-.41h-1.814v3.315h1.814c.663 0 1.186-.137 1.535-.444zm30.637 2.8c-.558-.546-.837-1.366-.837-2.391v-4.17h1.081v4.136c0 1.572.698 2.358 2.094 2.358.698 0 1.221-.206 1.57-.581.349-.376.558-.991.558-1.777V38.47h1.047v4.169c0 1.06-.279 1.845-.837 2.426-.559.547-1.326.82-2.338.82s-1.815-.273-2.338-.854zm21.634-5.877c.558.444.837 1.094.837 1.88 0 .786-.279 1.435-.837 1.88-.558.443-1.326.683-2.303.683h-1.85v2.22H70.52V38.47h2.931c1.012 0 1.745.205 2.303.683zm-.768 3.076c.35-.274.524-.684.524-1.23 0-.547-.175-.923-.524-1.23-.349-.274-.872-.41-1.535-.41h-1.814v3.28h1.814c.663.034 1.187-.103 1.535-.41zM12.457 18.615l-2.931 3.28h15.388v6.255H0v-4.443l1.64-1.811 6.874-7.724 6.84-7.69H0V.195h24.914v4.443l-1.64 1.846-6.874 7.69-3.943 4.442zM82 .194V28.15h-6.385V10.89l-7.886 7.724-4.537-4.443-3.315-3.28V28.15h-6.42V.194h4.536l1.884 1.846 7.851 7.723 7.887-7.723L77.499.194H82zm-39.64 0h-6.385V28.15h6.386V.194z" fill="#fff"/><path d="M36.987 45.408a3.37 3.37 0 01-1.36-1.333c-.35-.58-.49-1.23-.49-1.947 0-.718.175-1.367.49-1.948a3.6 3.6 0 011.36-1.333 4.228 4.228 0 011.954-.478c.733 0 1.396.17 1.954.478a3.169 3.169 0 011.361 1.333 4.04 4.04 0 01.489 1.948 4.04 4.04 0 01-.489 1.947c-.314.581-.802 1.026-1.36 1.333a4.228 4.228 0 01-1.955.479c-.733 0-1.396-.137-1.954-.479z" fill="#12B259"/></svg>