<svg width="28" height="28" viewBox="0 0 28 28" fill="none" xmlns="http://www.w3.org/2000/svg">
<path d="M16.6797 14C16.6797 15.48 15.48 16.6797 14 16.6797C12.52 16.6797 11.3203 15.48 11.3203 14C11.3203 12.52 12.52 11.3203 14 11.3203C15.48 11.3203 16.6797 12.52 16.6797 14Z" fill="white"/>
<path d="M20.2677 9.25885C20.1389 8.90979 19.9334 8.59384 19.6664 8.3345C19.407 8.06747 19.0913 7.86197 18.742 7.73315C18.4587 7.62314 18.0332 7.49219 17.2494 7.45651C16.4016 7.41785 16.1473 7.40952 14.0009 7.40952C11.8542 7.40952 11.5999 7.41763 10.7523 7.4563C9.96851 7.49219 9.54276 7.62314 9.2597 7.73315C8.91043 7.86197 8.59448 8.06747 8.33536 8.3345C8.06833 8.59384 7.86282 8.90958 7.7338 9.25885C7.62378 9.54211 7.49283 9.96786 7.45715 10.7516C7.41849 11.5993 7.41016 11.8535 7.41016 14.0002C7.41016 16.1467 7.41849 16.4009 7.45715 17.2488C7.49283 18.0326 7.62378 18.4581 7.7338 18.7414C7.86282 19.0906 8.06812 19.4064 8.33514 19.6657C8.59448 19.9327 8.91022 20.1382 9.25949 20.2671C9.54276 20.3773 9.96851 20.5082 10.7523 20.5439C11.5999 20.5826 11.8539 20.5907 14.0006 20.5907C16.1476 20.5907 16.4018 20.5826 17.2492 20.5439C18.033 20.5082 18.4587 20.3773 18.742 20.2671C19.4431 19.9966 19.9973 19.4425 20.2677 18.7414C20.3777 18.4581 20.5087 18.0326 20.5446 17.2488C20.5832 16.4009 20.5913 16.1467 20.5913 14.0002C20.5913 11.8535 20.5832 11.5993 20.5446 10.7516C20.5089 9.96786 20.3779 9.54211 20.2677 9.25885ZM14.0009 18.1281C11.7209 18.1281 9.87259 16.28 9.87259 14C9.87259 11.72 11.7209 9.87195 14.0009 9.87195C16.2806 9.87195 18.1289 11.72 18.1289 14C18.1289 16.28 16.2806 18.1281 14.0009 18.1281ZM18.2921 10.6735C17.7593 10.6735 17.3274 10.2415 17.3274 9.70874C17.3274 9.17596 17.7593 8.74402 18.2921 8.74402C18.8249 8.74402 19.2568 9.17596 19.2568 9.70874C19.2566 10.2415 18.8249 10.6735 18.2921 10.6735Z" fill="white"/>
<path d="M14 0C6.2692 0 0 6.2692 0 14C0 21.7308 6.2692 28 14 28C21.7308 28 28 21.7308 28 14C28 6.2692 21.7308 0 14 0ZM21.9906 17.3144C21.9517 18.1701 21.8156 18.7544 21.6169 19.2658C21.1993 20.3457 20.3457 21.1993 19.2658 21.6169C18.7546 21.8156 18.1701 21.9515 17.3146 21.9906C16.4573 22.0297 16.1834 22.0391 14.0002 22.0391C11.8168 22.0391 11.5431 22.0297 10.6856 21.9906C9.83008 21.9515 9.24561 21.8156 8.73441 21.6169C8.19778 21.4151 7.71201 21.0987 7.31039 20.6896C6.90152 20.2882 6.58514 19.8022 6.38327 19.2658C6.1846 18.7546 6.04852 18.1701 6.00964 17.3146C5.97012 16.4571 5.96094 16.1832 5.96094 14C5.96094 11.8168 5.97012 11.5429 6.00943 10.6856C6.04831 9.82986 6.18417 9.24561 6.38284 8.73419C6.58472 8.19778 6.90131 7.71179 7.31039 7.31039C7.71179 6.90131 8.19778 6.58493 8.73419 6.38306C9.24561 6.18439 9.82986 6.04852 10.6856 6.00943C11.5429 5.97034 11.8168 5.96094 14 5.96094C16.1832 5.96094 16.4571 5.97034 17.3144 6.00964C18.1701 6.04852 18.7544 6.18439 19.2658 6.38284C19.8022 6.58472 20.2882 6.90131 20.6898 7.31039C21.0987 7.71201 21.4153 8.19778 21.6169 8.73419C21.8158 9.24561 21.9517 9.82986 21.9908 10.6856C22.0299 11.5429 22.0391 11.8168 22.0391 14C22.0391 16.1832 22.0299 16.4571 21.9906 17.3144Z" fill="white"/>
</svg>
