<svg width="56" height="94" viewBox="0 0 56 94" fill="none" xmlns="http://www.w3.org/2000/svg">
<path d="M10.3297 81.9907H8.56973V70.7907H13.3857C14.5591 70.7907 15.4711 71.0947 16.1217 71.7027C16.7937 72.2894 17.1297 73.0681 17.1297 74.0387C17.1297 75.0094 16.7937 75.8094 16.1217 76.4387C15.4711 77.0574 14.5591 77.3667 13.3857 77.3667H10.3297V81.9907ZM10.3297 72.4067V75.7507H13.2417C13.9031 75.7507 14.4204 75.6067 14.7937 75.3187C15.1671 75.0201 15.3537 74.6041 15.3537 74.0707C15.3537 73.5374 15.1671 73.1267 14.7937 72.8387C14.4311 72.5507 13.9137 72.4067 13.2417 72.4067H10.3297ZM23.1155 81.9907H19.1635V70.7907H23.1155C24.9075 70.7907 26.3742 71.3134 27.5155 72.3587C28.6568 73.4041 29.2275 74.7481 29.2275 76.3907C29.2275 78.0441 28.6568 79.3934 27.5155 80.4387C26.3848 81.4734 24.9182 81.9907 23.1155 81.9907ZM20.9235 72.4067V80.3747H22.9555C24.3635 80.3747 25.4568 80.0174 26.2355 79.3027C27.0248 78.5774 27.4195 77.6067 27.4195 76.3907C27.4195 75.1747 27.0248 74.2041 26.2355 73.4787C25.4568 72.7641 24.3635 72.4067 22.9555 72.4067H20.9235ZM33.3766 81.9907H31.6166V70.7907H39.5686V72.4067H33.3766V75.3347H38.2886V76.9507H33.3766V81.9907Z" fill="white"/>
<g clip-path="url(#clip0)">
<path d="M47.8141 11.8001L36.3499 0.335864C36.1349 0.120911 35.8439 0 35.5393 0H11.4645C8.93547 0 6.87891 2.05657 6.87891 4.58571V50.4424C6.87891 52.9715 8.93547 55.028 11.4646 55.028H43.5643C46.0934 55.028 48.1499 52.9715 48.1499 50.4423V12.6106C48.1499 12.3061 48.029 12.015 47.8141 11.8001ZM36.6857 3.91398L44.236 11.4642H38.9785C37.7146 11.4642 36.6857 10.4353 36.6857 9.17141V3.91398ZM45.8571 50.4423C45.8571 51.7063 44.8283 52.7351 43.5643 52.7351H11.4646C10.2007 52.7351 9.17181 51.7063 9.17181 50.4423V4.58571C9.17181 3.32178 10.2007 2.29291 11.4646 2.29291H34.3929V9.17141C34.3929 11.7004 36.4495 13.757 38.9786 13.757H45.8571V50.4423Z" fill="white"/>
<path d="M33.3599 33.6546C32.2986 32.8194 31.2899 31.9608 30.6182 31.289C29.745 30.4158 28.9668 29.5694 28.2907 28.7633C29.3454 25.5043 29.8077 23.8239 29.8077 22.9282C29.8077 19.1229 28.4329 18.3425 26.3685 18.3425C24.8 18.3425 22.9292 19.1575 22.9292 23.038C22.9292 24.7487 23.8663 26.8254 25.7236 29.2391C25.2691 30.6262 24.735 32.2261 24.135 34.0297C23.8461 34.8951 23.5327 35.6967 23.2012 36.4378C22.9315 36.5577 22.6695 36.6796 22.4165 36.8061C21.5052 37.2618 20.6398 37.6715 19.837 38.0522C16.176 39.7853 13.7578 40.9317 13.7578 43.1954C13.7578 44.8389 15.5435 45.8565 17.1971 45.8565C19.3286 45.8565 22.5474 43.0095 24.8984 38.2133C27.339 37.2506 30.3731 36.5373 32.7677 36.0907C34.6866 37.5662 36.806 38.978 37.8326 38.978C40.6751 38.978 41.2718 37.3345 41.2718 35.9563C41.2718 33.2459 38.1751 33.2459 36.6861 33.2459C36.2238 33.246 34.9834 33.3826 33.3599 33.6546ZM17.1971 43.5637C16.5421 43.5637 16.0988 43.2547 16.0506 43.1954C16.0506 42.3826 18.4744 41.234 20.8188 40.1234C20.9677 40.0529 21.1189 39.9823 21.2723 39.9095C19.5504 42.4062 17.8475 43.5637 17.1971 43.5637ZM25.222 23.038C25.222 20.6354 25.9677 20.6354 26.3685 20.6354C27.1791 20.6354 27.5149 20.6354 27.5149 22.9282C27.5149 23.4119 27.1925 24.621 26.6025 26.5086C25.7022 25.1226 25.222 23.9347 25.222 23.038ZM26.1009 35.3597C26.1725 35.1605 26.242 34.9589 26.3091 34.7552C26.7345 33.4789 27.1175 32.3324 27.4589 31.3002C27.9347 31.8242 28.4475 32.3605 28.9972 32.9101C29.2122 33.1251 29.7451 33.6087 30.455 34.2143C29.0418 34.5223 27.5384 34.904 26.1009 35.3597ZM38.979 35.9564C38.979 36.4715 38.979 36.6852 37.9154 36.692C37.6031 36.6248 36.881 36.1994 35.9898 35.5926C36.3133 35.5568 36.5518 35.5389 36.6861 35.5389C38.3801 35.5389 38.8604 35.7045 38.979 35.9564Z" fill="white"/>
</g>
<defs>
<clipPath id="clip0">
<rect width="55.028" height="55.028" fill="white"/>
</clipPath>
</defs>
</svg>
