<svg width="150" height="86" fill="none" xmlns="http://www.w3.org/2000/svg"><path d="M13.149 78.283H15v5.364c-.702.575-1.468 1.022-2.362 1.277-.893.32-1.85.447-2.808.447a8.192 8.192 0 01-3.766-.894c-1.085-.575-1.979-1.469-2.617-2.49-.638-1.086-.958-2.235-.958-3.576 0-1.34.32-2.554.958-3.576a6.543 6.543 0 012.617-2.49c1.085-.575 2.362-.894 3.766-.894 1.085 0 2.106.192 3 .511.893.383 1.66.894 2.298 1.596l-1.213 1.213c-1.085-1.085-2.426-1.596-3.958-1.596a5.907 5.907 0 00-2.808.703 4.863 4.863 0 00-1.915 1.851c-.447.83-.702 1.724-.702 2.682 0 1.022.255 1.916.702 2.682.447.83 1.149 1.405 1.915 1.915.83.447 1.787.703 2.808.703 1.213 0 2.298-.32 3.192-.894v-4.534zm30.83 6.895l-2.937-4.214c-.383 0-.638.064-.83.064H36.83v4.15h-1.98V71.45h5.362c1.787 0 3.191.447 4.212 1.277 1.022.83 1.532 2.043 1.532 3.512 0 1.086-.255 1.98-.766 2.682-.51.766-1.276 1.277-2.234 1.596l3.256 4.598h-2.234v.064zm-1.022-6.64c.639-.511.958-1.277.958-2.299s-.32-1.724-.958-2.299c-.638-.51-1.595-.766-2.808-.766h-3.32v6.194h3.32c1.213 0 2.17-.255 2.808-.83zM99 83.773c-1.021-1.021-1.532-2.554-1.532-4.47v-7.79h1.979v7.727c0 2.937 1.276 4.406 3.829 4.406 1.277 0 2.235-.383 2.873-1.086.638-.702 1.021-1.852 1.021-3.32v-7.726h1.915v7.79c0 1.98-.511 3.448-1.532 4.533-1.021 1.022-2.425 1.533-4.277 1.533-1.851 0-3.319-.511-4.276-1.597zm39.574-10.983c1.022.83 1.532 2.044 1.532 3.513 0 1.468-.51 2.681-1.532 3.511-1.021.83-2.425 1.278-4.212 1.278h-3.383v4.15H129V71.514h5.362c1.851 0 3.191.383 4.212 1.277zm-1.404 5.747c.639-.51.958-1.277.958-2.298 0-1.022-.319-1.724-.958-2.299-.638-.51-1.596-.766-2.808-.766h-3.319v6.13h3.319c1.212.064 2.17-.192 2.808-.767zM22.787 34.417l-5.361 6.13h28.149v11.685H0v-8.3l3-3.385 12.575-14.43 12.51-14.367H0V0h45.575v8.3l-3 3.449L30 26.117l-7.213 8.3zM150 0v52.231h-11.681V19.986l-14.425 14.43-8.298-8.3-6.064-6.13V52.23H97.787V0h8.298l3.447 3.448 14.362 14.43 14.425-14.43L141.766 0H150zM77.49 0H65.808v52.231h11.68V0z" fill="#fff"/><path d="M67.66 84.476c-1.085-.575-1.915-1.469-2.49-2.49-.638-1.086-.893-2.3-.893-3.64 0-1.34.319-2.554.893-3.64.639-1.085 1.468-1.915 2.49-2.49a7.605 7.605 0 013.574-.894c1.34 0 2.553.32 3.575.894a5.858 5.858 0 012.489 2.49 7.678 7.678 0 01.894 3.64 7.69 7.69 0 01-.894 3.64c-.575 1.085-1.468 1.915-2.49 2.49a7.606 7.606 0 01-3.574.894c-1.34 0-2.553-.256-3.574-.894z" fill="#12B259"/></svg>