<svg width="392" height="231" viewBox="0 0 392 231" fill="none" xmlns="http://www.w3.org/2000/svg">
<path d="M34.7597 211.822H39.5917V226.335C37.7589 227.89 35.7594 229.1 33.4267 229.791C31.0939 230.655 28.5946 231 26.0953 231C22.4295 231 19.2637 230.136 16.2645 228.581C13.4319 227.027 11.0992 224.608 9.43294 221.843C7.76671 218.906 6.93359 215.796 6.93359 212.168C6.93359 208.54 7.76671 205.257 9.43294 202.493C11.0992 199.555 13.4319 197.309 16.2645 195.754C19.0971 194.199 22.4295 193.335 26.0953 193.335C28.9278 193.335 31.5938 193.854 33.9265 194.718C36.2593 195.754 38.2587 197.136 39.925 199.037L36.7591 202.32C33.9265 199.383 30.4275 198 26.4285 198C23.7625 198 21.2632 198.691 19.0971 199.901C16.931 201.11 15.2648 202.838 14.0984 204.911C12.932 207.157 12.2655 209.576 12.2655 212.168C12.2655 214.932 12.932 217.351 14.0984 219.424C15.2648 221.67 17.0976 223.225 19.0971 224.608C21.2632 225.817 23.7625 226.508 26.4285 226.508C29.5943 226.508 32.4269 225.644 34.7597 224.089V211.822Z" fill="#4A4D56"/>
<path d="M115.239 230.48L107.575 219.077C106.575 219.077 105.908 219.249 105.408 219.249H96.5774V230.48H91.4121V193.333H105.408C110.074 193.333 113.74 194.543 116.406 196.789C119.072 199.035 120.405 202.318 120.405 206.291C120.405 209.229 119.738 211.647 118.405 213.548C117.072 215.621 115.073 217.003 112.573 217.867L121.071 230.307H115.239V230.48ZM112.573 212.511C114.239 211.129 115.073 209.056 115.073 206.291C115.073 203.527 114.239 201.626 112.573 200.071C110.907 198.689 108.408 197.998 105.242 197.998H96.5774V214.757H105.242C108.408 214.757 110.907 214.066 112.573 212.511Z" fill="#4A4D56"/>
<path d="M258.868 226.678C256.202 223.914 254.869 219.767 254.869 214.584V193.505H260.034V214.411C260.034 222.359 263.367 226.333 270.032 226.333C273.364 226.333 275.864 225.296 277.53 223.395C279.196 221.495 280.196 218.385 280.196 214.411V193.505H285.195V214.584C285.195 219.94 283.862 223.914 281.196 226.851C278.53 229.615 274.864 230.997 270.032 230.997C265.2 230.997 261.367 229.615 258.868 226.678Z" fill="#4A4D56"/>
<path d="M362.175 196.961C364.841 199.207 366.174 202.49 366.174 206.463C366.174 210.437 364.841 213.72 362.175 215.966C359.509 218.212 355.843 219.422 351.178 219.422H342.347V230.652H337.182V193.505H351.178C356.01 193.505 359.509 194.542 362.175 196.961ZM358.509 212.511C360.176 211.128 361.009 209.055 361.009 206.291C361.009 203.526 360.176 201.626 358.509 200.071C356.843 198.689 354.344 197.998 351.178 197.998H342.514V214.584H351.178C354.344 214.757 356.843 214.066 358.509 212.511Z" fill="#4A4D56"/>
<path d="M59.92 93.1255L45.9236 109.712H119.404V141.33H0.435547V118.869L8.26684 109.712L41.0916 70.6648L73.7497 31.7905H0.435547V0H119.404V22.4607L111.573 31.7905L78.7484 70.6648L59.92 93.1255Z" fill="#4A4D56"/>
<path d="M391.999 0V141.33H361.507V54.0785L323.85 93.1255L302.189 70.6648L286.36 54.0785V141.33H255.701V0H277.362L286.36 9.32983L323.85 48.3769L361.507 9.32983L370.504 0H391.999Z" fill="#4A4D56"/>
<path d="M202.717 0H172.225V141.33H202.717V0Z" fill="#4A4D56"/>
<path d="M177.056 228.579C174.223 227.024 172.057 224.605 170.557 221.841C168.891 218.904 168.225 215.621 168.225 211.993C168.225 208.364 169.058 205.082 170.557 202.145C172.224 199.207 174.39 196.961 177.056 195.406C179.888 193.851 183.054 192.988 186.386 192.988C189.886 192.988 193.051 193.851 195.717 195.406C198.55 196.961 200.716 199.207 202.216 202.145C203.715 205.082 204.548 208.364 204.548 211.993C204.548 215.621 203.715 218.904 202.216 221.841C200.716 224.778 198.383 227.024 195.717 228.579C192.885 230.134 189.719 230.998 186.386 230.998C182.887 230.998 179.722 230.307 177.056 228.579Z" fill="#12B259"/>
</svg>
